<svg width="280" height="600" viewBox="0 0 280 600" fill="none" xmlns="http://www.w3.org/2000/svg">
<g opacity="0.2">
<path d="M12 0.5H268C274.351 0.5 279.5 5.64873 279.5 12V108C279.5 114.351 274.351 119.5 268 119.5H12C5.64873 119.5 0.5 114.351 0.5 108V12L0.514648 11.4082C0.822652 5.33195 5.8472 0.5 12 0.5Z" fill="#1A1A1A"/>
<path d="M12 0.5H268C274.351 0.5 279.5 5.64873 279.5 12V108C279.5 114.351 274.351 119.5 268 119.5H12C5.64873 119.5 0.5 114.351 0.5 108V12L0.514648 11.4082C0.822652 5.33195 5.8472 0.5 12 0.5Z" stroke="#333333"/>
<path d="M20 36C20 27.1634 27.1634 20 36 20C44.8366 20 52 27.1634 52 36C52 44.8366 44.8366 52 36 52C27.1634 52 20 44.8366 20 36Z" fill="#404040"/>
<path d="M20 64C20 61.7909 21.7909 60 24 60H196C198.209 60 200 61.7909 200 64C200 66.2091 198.209 68 196 68H24C21.7909 68 20 66.2091 20 64Z" fill="#333333"/>
<path d="M20 83C20 81.3431 21.3431 80 23 80H237C238.657 80 240 81.3431 240 83C240 84.6569 238.657 86 237 86H23C21.3431 86 20 84.6569 20 83Z" fill="#2A2A2A"/>
<path d="M20 101C20 99.3431 21.3431 98 23 98H177C178.657 98 180 99.3431 180 101C180 102.657 178.657 104 177 104H23C21.3431 104 20 102.657 20 101Z" fill="#2A2A2A"/>
</g>
<g opacity="0.25">
<path d="M12 80.5H268C274.351 80.5 279.5 85.6487 279.5 92V188C279.5 194.351 274.351 199.5 268 199.5H12C5.64873 199.5 0.5 194.351 0.5 188V92L0.514648 91.4082C0.822652 85.3319 5.8472 80.5 12 80.5Z" fill="#1A1A1A"/>
<path d="M12 80.5H268C274.351 80.5 279.5 85.6487 279.5 92V188C279.5 194.351 274.351 199.5 268 199.5H12C5.64873 199.5 0.5 194.351 0.5 188V92L0.514648 91.4082C0.822652 85.3319 5.8472 80.5 12 80.5Z" stroke="#333333"/>
<path d="M20 116C20 107.163 27.1634 100 36 100C44.8366 100 52 107.163 52 116C52 124.837 44.8366 132 36 132C27.1634 132 20 124.837 20 116Z" fill="#404040"/>
<path d="M20 144C20 141.791 21.7909 140 24 140H196C198.209 140 200 141.791 200 144C200 146.209 198.209 148 196 148H24C21.7909 148 20 146.209 20 144Z" fill="#333333"/>
<path d="M20 163C20 161.343 21.3431 160 23 160H237C238.657 160 240 161.343 240 163C240 164.657 238.657 166 237 166H23C21.3431 166 20 164.657 20 163Z" fill="#2A2A2A"/>
<path d="M20 181C20 179.343 21.3431 178 23 178H177C178.657 178 180 179.343 180 181C180 182.657 178.657 184 177 184H23C21.3431 184 20 182.657 20 181Z" fill="#2A2A2A"/>
</g>
<g opacity="0.3">
<path d="M12 160.5H268C274.351 160.5 279.5 165.649 279.5 172V268C279.5 274.351 274.351 279.5 268 279.5H12C5.64873 279.5 0.5 274.351 0.5 268V172L0.514648 171.408C0.822652 165.332 5.8472 160.5 12 160.5Z" fill="#1A1A1A"/>
<path d="M12 160.5H268C274.351 160.5 279.5 165.649 279.5 172V268C279.5 274.351 274.351 279.5 268 279.5H12C5.64873 279.5 0.5 274.351 0.5 268V172L0.514648 171.408C0.822652 165.332 5.8472 160.5 12 160.5Z" stroke="#333333"/>
<path d="M20 196C20 187.163 27.1634 180 36 180C44.8366 180 52 187.163 52 196C52 204.837 44.8366 212 36 212C27.1634 212 20 204.837 20 196Z" fill="#404040"/>
<path d="M20 224C20 221.791 21.7909 220 24 220H196C198.209 220 200 221.791 200 224C200 226.209 198.209 228 196 228H24C21.7909 228 20 226.209 20 224Z" fill="#333333"/>
<path d="M20 243C20 241.343 21.3431 240 23 240H237C238.657 240 240 241.343 240 243C240 244.657 238.657 246 237 246H23C21.3431 246 20 244.657 20 243Z" fill="#2A2A2A"/>
<path d="M20 261C20 259.343 21.3431 258 23 258H177C178.657 258 180 259.343 180 261C180 262.657 178.657 264 177 264H23C21.3431 264 20 262.657 20 261Z" fill="#2A2A2A"/>
</g>
<g opacity="0.4">
<path d="M12 240.5H268C274.351 240.5 279.5 245.649 279.5 252V348C279.5 354.351 274.351 359.5 268 359.5H12C5.64873 359.5 0.5 354.351 0.5 348V252L0.514648 251.408C0.822652 245.332 5.8472 240.5 12 240.5Z" fill="#1A1A1A"/>
<path d="M12 240.5H268C274.351 240.5 279.5 245.649 279.5 252V348C279.5 354.351 274.351 359.5 268 359.5H12C5.64873 359.5 0.5 354.351 0.5 348V252L0.514648 251.408C0.822652 245.332 5.8472 240.5 12 240.5Z" stroke="#333333"/>
<path d="M20 276C20 267.163 27.1634 260 36 260C44.8366 260 52 267.163 52 276C52 284.837 44.8366 292 36 292C27.1634 292 20 284.837 20 276Z" fill="#404040"/>
<path d="M20 304C20 301.791 21.7909 300 24 300H196C198.209 300 200 301.791 200 304C200 306.209 198.209 308 196 308H24C21.7909 308 20 306.209 20 304Z" fill="#333333"/>
<path d="M20 323C20 321.343 21.3431 320 23 320H237C238.657 320 240 321.343 240 323C240 324.657 238.657 326 237 326H23C21.3431 326 20 324.657 20 323Z" fill="#2A2A2A"/>
<path d="M20 341C20 339.343 21.3431 338 23 338H177C178.657 338 180 339.343 180 341C180 342.657 178.657 344 177 344H23C21.3431 344 20 342.657 20 341Z" fill="#2A2A2A"/>
</g>
<g opacity="0.5">
<path d="M12 320.5H268C274.351 320.5 279.5 325.649 279.5 332V428C279.5 434.351 274.351 439.5 268 439.5H12C5.64873 439.5 0.5 434.351 0.5 428V332L0.514648 331.408C0.822652 325.332 5.8472 320.5 12 320.5Z" fill="#1A1A1A"/>
<path d="M12 320.5H268C274.351 320.5 279.5 325.649 279.5 332V428C279.5 434.351 274.351 439.5 268 439.5H12C5.64873 439.5 0.5 434.351 0.5 428V332L0.514648 331.408C0.822652 325.332 5.8472 320.5 12 320.5Z" stroke="#333333"/>
<path d="M20 356C20 347.163 27.1634 340 36 340C44.8366 340 52 347.163 52 356C52 364.837 44.8366 372 36 372C27.1634 372 20 364.837 20 356Z" fill="#404040"/>
<path d="M20 384C20 381.791 21.7909 380 24 380H196C198.209 380 200 381.791 200 384C200 386.209 198.209 388 196 388H24C21.7909 388 20 386.209 20 384Z" fill="#333333"/>
<path d="M20 403C20 401.343 21.3431 400 23 400H237C238.657 400 240 401.343 240 403C240 404.657 238.657 406 237 406H23C21.3431 406 20 404.657 20 403Z" fill="#2A2A2A"/>
<path d="M20 421C20 419.343 21.3431 418 23 418H177C178.657 418 180 419.343 180 421C180 422.657 178.657 424 177 424H23C21.3431 424 20 422.657 20 421Z" fill="#2A2A2A"/>
</g>
<g opacity="0.65">
<path d="M12 400.5H268C274.351 400.5 279.5 405.649 279.5 412V508C279.5 514.351 274.351 519.5 268 519.5H12C5.64873 519.5 0.5 514.351 0.5 508V412L0.514648 411.408C0.822652 405.332 5.8472 400.5 12 400.5Z" fill="#1A1A1A"/>
<path d="M12 400.5H268C274.351 400.5 279.5 405.649 279.5 412V508C279.5 514.351 274.351 519.5 268 519.5H12C5.64873 519.5 0.5 514.351 0.5 508V412L0.514648 411.408C0.822652 405.332 5.8472 400.5 12 400.5Z" stroke="#333333"/>
<path d="M20 436C20 427.163 27.1634 420 36 420C44.8366 420 52 427.163 52 436C52 444.837 44.8366 452 36 452C27.1634 452 20 444.837 20 436Z" fill="#404040"/>
<path d="M20 464C20 461.791 21.7909 460 24 460H196C198.209 460 200 461.791 200 464C200 466.209 198.209 468 196 468H24C21.7909 468 20 466.209 20 464Z" fill="#333333"/>
<path d="M20 483C20 481.343 21.3431 480 23 480H237C238.657 480 240 481.343 240 483C240 484.657 238.657 486 237 486H23C21.3431 486 20 484.657 20 483Z" fill="#2A2A2A"/>
<path d="M20 501C20 499.343 21.3431 498 23 498H177C178.657 498 180 499.343 180 501C180 502.657 178.657 504 177 504H23C21.3431 504 20 502.657 20 501Z" fill="#2A2A2A"/>
</g>
<g opacity="0.8">
<path d="M12 480.5H268C274.351 480.5 279.5 485.649 279.5 492V588C279.5 594.351 274.351 599.5 268 599.5H12C5.64873 599.5 0.5 594.351 0.5 588V492L0.514648 491.408C0.822652 485.332 5.8472 480.5 12 480.5Z" fill="#1A1A1A"/>
<path d="M12 480.5H268C274.351 480.5 279.5 485.649 279.5 492V588C279.5 594.351 274.351 599.5 268 599.5H12C5.64873 599.5 0.5 594.351 0.5 588V492L0.514648 491.408C0.822652 485.332 5.8472 480.5 12 480.5Z" stroke="#333333"/>
<path d="M20 516C20 507.163 27.1634 500 36 500C44.8366 500 52 507.163 52 516C52 524.837 44.8366 532 36 532C27.1634 532 20 524.837 20 516Z" fill="#404040"/>
<rect width="180" height="8" transform="translate(20 540)" fill="#333333"/>
</g>
</svg>
