<svg width="340" height="552" viewBox="0 0 340 552" fill="none" xmlns="http://www.w3.org/2000/svg">
<g filter="url(#filter0_d_578_3358)">
<path d="M30 42C30 35.3726 35.3726 30 42 30H298C304.627 30 310 35.3726 310 42V158C310 164.627 304.627 170 298 170H42C35.3726 170 30 164.627 30 158V42Z" fill="#1A1A1A" shape-rendering="crispEdges"/>
<path d="M42 31H298C304.075 31 309 35.9249 309 42V158C309 164.075 304.075 169 298 169H42C35.9249 169 31 164.075 31 158V42C31 35.9249 35.9249 31 42 31Z" stroke="white" stroke-width="2" shape-rendering="crispEdges"/>
<path d="M54 74C54 62.9543 62.9543 54 74 54C85.0457 54 94 62.9543 94 74C94 85.0457 85.0457 94 74 94C62.9543 94 54 85.0457 54 74Z" fill="#666666"/>
<path d="M54 111C54 108.239 56.2386 106 59 106H249C251.761 106 254 108.239 254 111C254 113.761 251.761 116 249 116H59C56.2386 116 54 113.761 54 111Z" fill="#CCCCCC"/>
<path d="M54 136C54 133.791 55.7909 132 58 132H290C292.209 132 294 133.791 294 136C294 138.209 292.209 140 290 140H58C55.7909 140 54 138.209 54 136Z" fill="#666666"/>
<path d="M54 160C54 157.791 55.7909 156 58 156H230C232.209 156 234 157.791 234 160C234 162.209 232.209 164 230 164H58C55.7909 164 54 162.209 54 160Z" fill="#666666"/>
<path d="M54 196C54 187.163 61.1634 180 70 180H152C160.837 180 168 187.163 168 196C168 204.837 160.837 212 152 212H70C61.1634 212 54 204.837 54 196Z" fill="#333333"/>
<path d="M82 204H66V188H82V204Z" stroke="white"/>
<path d="M79.3334 192L72 199.333L68.6667 196" stroke="white" stroke-width="1.33333" stroke-linecap="round" stroke-linejoin="round"/>
<path d="M93.8054 191.653C94.223 191.656 94.6293 191.73 95.0241 191.875C95.4219 192.017 95.7798 192.25 96.098 192.574C96.4162 192.895 96.669 193.325 96.8565 193.865C97.044 194.405 97.1378 195.072 97.1378 195.868C97.1406 196.618 97.0611 197.288 96.8991 197.879C96.7401 198.467 96.5114 198.964 96.2131 199.371C95.9148 199.777 95.5554 200.087 95.1349 200.3C94.7145 200.513 94.2415 200.619 93.7159 200.619C93.1648 200.619 92.6761 200.511 92.25 200.295C91.8267 200.08 91.4844 199.784 91.223 199.409C90.9616 199.034 90.8011 198.605 90.7415 198.122H92.2969C92.3764 198.469 92.5384 198.744 92.7827 198.949C93.0298 199.151 93.3409 199.251 93.7159 199.251C94.321 199.251 94.7869 198.989 95.1136 198.463C95.4403 197.937 95.6037 197.207 95.6037 196.273H95.544C95.4048 196.523 95.2244 196.739 95.0028 196.92C94.7813 197.099 94.5298 197.237 94.2486 197.334C93.9702 197.43 93.6747 197.479 93.3622 197.479C92.8509 197.479 92.3906 197.357 91.9815 197.112C91.5753 196.868 91.2528 196.533 91.0142 196.107C90.7784 195.68 90.6591 195.193 90.6562 194.645C90.6562 194.077 90.7869 193.567 91.0483 193.115C91.3125 192.661 91.6804 192.303 92.152 192.041C92.6236 191.777 93.1747 191.648 93.8054 191.653ZM93.8097 192.932C93.5028 192.932 93.2259 193.007 92.9787 193.158C92.7344 193.305 92.5412 193.507 92.3991 193.763C92.2599 194.016 92.1903 194.298 92.1903 194.611C92.1932 194.92 92.2628 195.202 92.3991 195.455C92.5384 195.707 92.7273 195.908 92.9659 196.055C93.2074 196.203 93.483 196.277 93.7926 196.277C94.0227 196.277 94.2372 196.233 94.4361 196.145C94.6349 196.057 94.8082 195.935 94.956 195.778C95.1065 195.619 95.223 195.439 95.3054 195.237C95.3906 195.036 95.4318 194.822 95.429 194.598C95.429 194.3 95.358 194.024 95.2159 193.771C95.0767 193.518 94.8849 193.315 94.6406 193.162C94.3991 193.009 94.1222 192.932 93.8097 192.932ZM101.659 200.619C101.026 200.619 100.463 200.513 99.9716 200.3C99.483 200.087 99.0994 199.795 98.821 199.426C98.5455 199.054 98.4091 198.632 98.4119 198.161C98.4091 197.794 98.4886 197.457 98.6506 197.151C98.8125 196.844 99.0313 196.588 99.3068 196.384C99.5852 196.176 99.8949 196.044 100.236 195.987V195.928C99.7869 195.828 99.4233 195.599 99.1449 195.241C98.8693 194.881 98.733 194.464 98.7358 193.993C98.733 193.544 98.858 193.143 99.1108 192.791C99.3636 192.439 99.7102 192.162 100.151 191.96C100.591 191.756 101.094 191.653 101.659 191.653C102.219 191.653 102.717 191.756 103.155 191.96C103.595 192.162 103.942 192.439 104.195 192.791C104.45 193.143 104.578 193.544 104.578 193.993C104.578 194.464 104.438 194.881 104.156 195.241C103.878 195.599 103.518 195.828 103.078 195.928V195.987C103.419 196.044 103.726 196.176 103.999 196.384C104.274 196.588 104.493 196.844 104.655 197.151C104.82 197.457 104.902 197.794 104.902 198.161C104.902 198.632 104.763 199.054 104.484 199.426C104.206 199.795 103.822 200.087 103.334 200.3C102.848 200.513 102.29 200.619 101.659 200.619ZM101.659 199.401C101.986 199.401 102.27 199.345 102.511 199.234C102.753 199.121 102.94 198.962 103.074 198.757C103.207 198.553 103.276 198.317 103.278 198.05C103.276 197.771 103.203 197.526 103.061 197.312C102.922 197.097 102.73 196.928 102.486 196.805C102.244 196.683 101.969 196.622 101.659 196.622C101.347 196.622 101.068 196.683 100.824 196.805C100.58 196.928 100.386 197.097 100.244 197.312C100.105 197.526 100.037 197.771 100.04 198.05C100.037 198.317 100.102 198.553 100.236 198.757C100.369 198.959 100.557 199.116 100.798 199.23C101.043 199.344 101.33 199.401 101.659 199.401ZM101.659 195.425C101.926 195.425 102.162 195.371 102.366 195.263C102.574 195.155 102.737 195.004 102.857 194.811C102.976 194.618 103.037 194.395 103.04 194.142C103.037 193.892 102.977 193.673 102.861 193.486C102.744 193.295 102.582 193.149 102.375 193.047C102.168 192.942 101.929 192.889 101.659 192.889C101.384 192.889 101.141 192.942 100.93 193.047C100.723 193.149 100.561 193.295 100.445 193.486C100.331 193.673 100.276 193.892 100.278 194.142C100.276 194.395 100.332 194.618 100.449 194.811C100.568 195.001 100.732 195.152 100.939 195.263C101.149 195.371 101.389 195.425 101.659 195.425ZM110.969 198.864V198.403C110.969 198.065 111.04 197.754 111.182 197.47C111.327 197.186 111.537 196.957 111.813 196.784C112.088 196.611 112.422 196.524 112.814 196.524C113.218 196.524 113.556 196.611 113.828 196.784C114.101 196.955 114.307 197.182 114.446 197.466C114.588 197.75 114.659 198.062 114.659 198.403V198.864C114.659 199.202 114.588 199.513 114.446 199.797C114.304 200.081 114.096 200.31 113.82 200.483C113.547 200.656 113.212 200.743 112.814 200.743C112.417 200.743 112.08 200.656 111.804 200.483C111.529 200.31 111.32 200.081 111.178 199.797C111.039 199.513 110.969 199.202 110.969 198.864ZM112.081 198.403V198.864C112.081 199.088 112.135 199.294 112.243 199.482C112.351 199.669 112.542 199.763 112.814 199.763C113.09 199.763 113.279 199.67 113.381 199.486C113.486 199.298 113.539 199.091 113.539 198.864V198.403C113.539 198.176 113.489 197.969 113.39 197.781C113.29 197.591 113.098 197.496 112.814 197.496C112.547 197.496 112.358 197.591 112.248 197.781C112.137 197.969 112.081 198.176 112.081 198.403ZM106.533 193.869V193.409C106.533 193.068 106.605 192.756 106.75 192.472C106.895 192.187 107.105 191.96 107.381 191.79C107.657 191.616 107.99 191.53 108.382 191.53C108.783 191.53 109.12 191.616 109.392 191.79C109.668 191.96 109.875 192.187 110.015 192.472C110.154 192.756 110.223 193.068 110.223 193.409V193.869C110.223 194.21 110.152 194.523 110.01 194.807C109.871 195.088 109.664 195.314 109.388 195.484C109.113 195.655 108.777 195.74 108.382 195.74C107.982 195.74 107.644 195.655 107.368 195.484C107.096 195.314 106.888 195.087 106.746 194.803C106.604 194.518 106.533 194.207 106.533 193.869ZM107.654 193.409V193.869C107.654 194.097 107.706 194.304 107.811 194.491C107.919 194.676 108.11 194.768 108.382 194.768C108.655 194.768 108.843 194.676 108.945 194.491C109.05 194.304 109.103 194.097 109.103 193.869V193.409C109.103 193.182 109.053 192.974 108.953 192.787C108.854 192.597 108.664 192.501 108.382 192.501C108.113 192.501 107.924 192.597 107.816 192.787C107.708 192.977 107.654 193.185 107.654 193.409ZM107.019 200.5L113.019 191.773H114.084L108.084 200.5H107.019ZM119.49 191.773H121.424L124.015 198.097H124.118L126.708 191.773H128.643V200.5H127.126V194.504H127.045L124.633 200.474H123.5L121.088 194.491H121.007V200.5H119.49V191.773ZM132.18 200.632C131.765 200.632 131.392 200.558 131.059 200.411C130.73 200.26 130.468 200.038 130.275 199.746C130.085 199.453 129.99 199.092 129.99 198.663C129.99 198.294 130.058 197.989 130.194 197.747C130.331 197.506 130.517 197.312 130.752 197.168C130.988 197.023 131.254 196.913 131.549 196.839C131.848 196.763 132.156 196.707 132.474 196.673C132.858 196.634 133.169 196.598 133.407 196.567C133.646 196.533 133.819 196.482 133.927 196.413C134.038 196.342 134.093 196.233 134.093 196.085V196.06C134.093 195.739 133.998 195.49 133.808 195.314C133.618 195.138 133.343 195.05 132.985 195.05C132.608 195.05 132.308 195.132 132.086 195.297C131.868 195.462 131.72 195.656 131.643 195.881L130.203 195.676C130.316 195.278 130.504 194.946 130.765 194.679C131.027 194.409 131.346 194.207 131.724 194.074C132.102 193.938 132.52 193.869 132.977 193.869C133.292 193.869 133.606 193.906 133.919 193.98C134.231 194.054 134.517 194.176 134.775 194.347C135.034 194.514 135.241 194.743 135.397 195.033C135.556 195.322 135.636 195.685 135.636 196.119V200.5H134.153V199.601H134.102C134.008 199.783 133.876 199.953 133.706 200.112C133.538 200.268 133.326 200.395 133.071 200.491C132.818 200.585 132.521 200.632 132.18 200.632ZM132.581 199.499C132.89 199.499 133.159 199.437 133.386 199.315C133.613 199.19 133.788 199.026 133.91 198.821C134.035 198.616 134.098 198.393 134.098 198.152V197.381C134.049 197.42 133.967 197.457 133.85 197.491C133.737 197.526 133.609 197.555 133.467 197.581C133.325 197.607 133.184 197.629 133.045 197.649C132.906 197.669 132.785 197.686 132.683 197.7C132.453 197.732 132.247 197.783 132.065 197.854C131.883 197.925 131.74 198.024 131.635 198.152C131.529 198.277 131.477 198.439 131.477 198.638C131.477 198.922 131.581 199.136 131.788 199.281C131.995 199.426 132.26 199.499 132.581 199.499ZM140.456 193.955V195.148H136.693V193.955H140.456ZM137.622 192.386H139.164V198.531C139.164 198.739 139.196 198.898 139.258 199.009C139.324 199.116 139.409 199.19 139.514 199.23C139.619 199.27 139.735 199.29 139.863 199.29C139.96 199.29 140.048 199.283 140.127 199.268C140.21 199.254 140.272 199.241 140.315 199.23L140.575 200.436C140.493 200.464 140.375 200.496 140.221 200.53C140.071 200.564 139.886 200.584 139.667 200.589C139.281 200.601 138.933 200.543 138.623 200.415C138.314 200.284 138.068 200.082 137.886 199.81C137.707 199.537 137.619 199.196 137.622 198.787V192.386ZM144.531 200.628C143.877 200.628 143.316 200.484 142.847 200.197C142.381 199.911 142.022 199.514 141.769 199.009C141.519 198.5 141.394 197.915 141.394 197.253C141.394 196.588 141.522 196.001 141.778 195.493C142.033 194.982 142.394 194.584 142.86 194.3C143.329 194.013 143.883 193.869 144.522 193.869C145.053 193.869 145.523 193.967 145.933 194.163C146.344 194.357 146.673 194.631 146.917 194.986C147.161 195.338 147.3 195.75 147.335 196.222H145.86C145.8 195.906 145.658 195.643 145.434 195.433C145.212 195.22 144.915 195.114 144.543 195.114C144.228 195.114 143.951 195.199 143.712 195.369C143.474 195.537 143.288 195.778 143.154 196.094C143.023 196.409 142.958 196.787 142.958 197.227C142.958 197.673 143.023 198.057 143.154 198.378C143.285 198.696 143.468 198.942 143.704 199.115C143.942 199.286 144.222 199.371 144.543 199.371C144.771 199.371 144.974 199.328 145.153 199.243C145.335 199.155 145.487 199.028 145.609 198.864C145.731 198.699 145.815 198.499 145.86 198.263H147.335C147.298 198.726 147.161 199.136 146.925 199.494C146.69 199.849 146.369 200.128 145.962 200.33C145.556 200.528 145.079 200.628 144.531 200.628ZM150.144 196.665V200.5H148.601V191.773H150.11V195.067H150.186C150.34 194.697 150.577 194.406 150.898 194.193C151.222 193.977 151.634 193.869 152.134 193.869C152.588 193.869 152.985 193.964 153.323 194.155C153.661 194.345 153.922 194.624 154.107 194.99C154.294 195.357 154.388 195.804 154.388 196.332V200.5H152.846V196.571C152.846 196.131 152.732 195.788 152.505 195.544C152.28 195.297 151.965 195.173 151.559 195.173C151.286 195.173 151.042 195.233 150.826 195.352C150.613 195.469 150.445 195.638 150.323 195.859C150.203 196.081 150.144 196.349 150.144 196.665Z" fill="white"/>
</g>
<g filter="url(#filter1_d_578_3358)">
<path d="M30 202C30 195.373 35.3726 190 42 190H298C304.627 190 310 195.373 310 202V318C310 324.627 304.627 330 298 330H42C35.3726 330 30 324.627 30 318V202Z" fill="#1A1A1A" shape-rendering="crispEdges"/>
<path d="M42 190.75H298C304.213 190.75 309.25 195.787 309.25 202V318C309.25 324.213 304.213 329.25 298 329.25H42C35.7868 329.25 30.75 324.213 30.75 318V202C30.75 195.787 35.7868 190.75 42 190.75Z" stroke="#CCCCCC" stroke-width="1.5" shape-rendering="crispEdges"/>
<path d="M54 234C54 222.954 62.9543 214 74 214C85.0457 214 94 222.954 94 234C94 245.046 85.0457 254 74 254C62.9543 254 54 245.046 54 234Z" fill="#666666"/>
<path d="M54 271C54 268.239 56.2386 266 59 266H249C251.761 266 254 268.239 254 271C254 273.761 251.761 276 249 276H59C56.2386 276 54 273.761 54 271Z" fill="#CCCCCC"/>
<path d="M54 296C54 293.791 55.7909 292 58 292H290C292.209 292 294 293.791 294 296C294 298.209 292.209 300 290 300H58C55.7909 300 54 298.209 54 296Z" fill="#666666"/>
<path d="M54 320C54 317.791 55.7909 316 58 316H230C232.209 316 234 317.791 234 320C234 322.209 232.209 324 230 324H58C55.7909 324 54 322.209 54 320Z" fill="#666666"/>
<path d="M54 356C54 347.163 61.1634 340 70 340H152C160.837 340 168 347.163 168 356C168 364.837 160.837 372 152 372H70C61.1634 372 54 364.837 54 356Z" fill="#333333"/>
<path d="M82 364H66V348H82V364Z" stroke="white"/>
<path d="M79.3334 352L72 359.333L68.6667 356" stroke="white" stroke-width="1.33333" stroke-linecap="round" stroke-linejoin="round"/>
<path d="M93.8054 351.653C94.223 351.656 94.6293 351.73 95.0241 351.875C95.4219 352.017 95.7798 352.25 96.098 352.574C96.4162 352.895 96.669 353.325 96.8565 353.865C97.044 354.405 97.1378 355.072 97.1378 355.868C97.1406 356.618 97.0611 357.288 96.8991 357.879C96.7401 358.467 96.5114 358.964 96.2131 359.371C95.9148 359.777 95.5554 360.087 95.1349 360.3C94.7145 360.513 94.2415 360.619 93.7159 360.619C93.1648 360.619 92.6761 360.511 92.25 360.295C91.8267 360.08 91.4844 359.784 91.223 359.409C90.9616 359.034 90.8011 358.605 90.7415 358.122H92.2969C92.3764 358.469 92.5384 358.744 92.7827 358.949C93.0298 359.151 93.3409 359.251 93.7159 359.251C94.321 359.251 94.7869 358.989 95.1136 358.463C95.4403 357.937 95.6037 357.207 95.6037 356.273H95.544C95.4048 356.523 95.2244 356.739 95.0028 356.92C94.7813 357.099 94.5298 357.237 94.2486 357.334C93.9702 357.43 93.6747 357.479 93.3622 357.479C92.8509 357.479 92.3906 357.357 91.9815 357.112C91.5753 356.868 91.2528 356.533 91.0142 356.107C90.7784 355.68 90.6591 355.193 90.6562 354.645C90.6562 354.077 90.7869 353.567 91.0483 353.115C91.3125 352.661 91.6804 352.303 92.152 352.041C92.6236 351.777 93.1747 351.648 93.8054 351.653ZM93.8097 352.932C93.5028 352.932 93.2259 353.007 92.9787 353.158C92.7344 353.305 92.5412 353.507 92.3991 353.763C92.2599 354.016 92.1903 354.298 92.1903 354.611C92.1932 354.92 92.2628 355.202 92.3991 355.455C92.5384 355.707 92.7273 355.908 92.9659 356.055C93.2074 356.203 93.483 356.277 93.7926 356.277C94.0227 356.277 94.2372 356.233 94.4361 356.145C94.6349 356.057 94.8082 355.935 94.956 355.778C95.1065 355.619 95.223 355.439 95.3054 355.237C95.3906 355.036 95.4318 354.822 95.429 354.598C95.429 354.3 95.358 354.024 95.2159 353.771C95.0767 353.518 94.8849 353.315 94.6406 353.162C94.3991 353.009 94.1222 352.932 93.8097 352.932ZM101.591 360.619C101.023 360.619 100.514 360.513 100.065 360.3C99.6165 360.084 99.2599 359.788 98.9957 359.413C98.7344 359.038 98.5952 358.609 98.5781 358.126H100.112C100.141 358.484 100.295 358.777 100.577 359.004C100.858 359.229 101.196 359.341 101.591 359.341C101.901 359.341 102.176 359.27 102.418 359.128C102.659 358.986 102.849 358.788 102.989 358.536C103.128 358.283 103.196 357.994 103.193 357.67C103.196 357.341 103.126 357.048 102.984 356.793C102.842 356.537 102.648 356.337 102.401 356.192C102.153 356.044 101.869 355.97 101.548 355.97C101.287 355.967 101.03 356.016 100.777 356.115C100.524 356.214 100.324 356.345 100.176 356.507L98.7486 356.273L99.2045 351.773H104.267V353.094H100.513L100.261 355.408H100.312C100.474 355.217 100.703 355.06 100.999 354.935C101.294 354.807 101.618 354.743 101.97 354.743C102.499 354.743 102.97 354.868 103.385 355.118C103.8 355.365 104.126 355.706 104.365 356.141C104.604 356.575 104.723 357.072 104.723 357.632C104.723 358.209 104.589 358.723 104.322 359.175C104.058 359.624 103.69 359.977 103.219 360.236C102.75 360.491 102.207 360.619 101.591 360.619ZM110.817 358.864V358.403C110.817 358.065 110.888 357.754 111.03 357.47C111.175 357.186 111.385 356.957 111.661 356.784C111.936 356.611 112.27 356.524 112.662 356.524C113.065 356.524 113.403 356.611 113.676 356.784C113.949 356.955 114.155 357.182 114.294 357.466C114.436 357.75 114.507 358.062 114.507 358.403V358.864C114.507 359.202 114.436 359.513 114.294 359.797C114.152 360.081 113.943 360.31 113.668 360.483C113.395 360.656 113.06 360.743 112.662 360.743C112.264 360.743 111.928 360.656 111.652 360.483C111.376 360.31 111.168 360.081 111.026 359.797C110.886 359.513 110.817 359.202 110.817 358.864ZM111.929 358.403V358.864C111.929 359.088 111.983 359.294 112.091 359.482C112.199 359.669 112.389 359.763 112.662 359.763C112.938 359.763 113.126 359.67 113.229 359.486C113.334 359.298 113.386 359.091 113.386 358.864V358.403C113.386 358.176 113.337 357.969 113.237 357.781C113.138 357.591 112.946 357.496 112.662 357.496C112.395 357.496 112.206 357.591 112.095 357.781C111.984 357.969 111.929 358.176 111.929 358.403ZM106.381 353.869V353.409C106.381 353.068 106.453 352.756 106.598 352.472C106.743 352.187 106.953 351.96 107.229 351.79C107.504 351.616 107.838 351.53 108.23 351.53C108.631 351.53 108.967 351.616 109.24 351.79C109.516 351.96 109.723 352.187 109.862 352.472C110.001 352.756 110.071 353.068 110.071 353.409V353.869C110.071 354.21 110 354.523 109.858 354.807C109.719 355.088 109.511 355.314 109.236 355.484C108.96 355.655 108.625 355.74 108.23 355.74C107.83 355.74 107.491 355.655 107.216 355.484C106.943 355.314 106.736 355.087 106.594 354.803C106.452 354.518 106.381 354.207 106.381 353.869ZM107.501 353.409V353.869C107.501 354.097 107.554 354.304 107.659 354.491C107.767 354.676 107.957 354.768 108.23 354.768C108.503 354.768 108.69 354.676 108.793 354.491C108.898 354.304 108.95 354.097 108.95 353.869V353.409C108.95 353.182 108.901 352.974 108.801 352.787C108.702 352.597 108.511 352.501 108.23 352.501C107.96 352.501 107.771 352.597 107.663 352.787C107.555 352.977 107.501 353.185 107.501 353.409ZM106.866 360.5L112.866 351.773H113.932L107.932 360.5H106.866ZM119.337 351.773H121.272L123.863 358.097H123.965L126.556 351.773H128.491V360.5H126.974V354.504H126.893L124.481 360.474H123.347L120.935 354.491H120.854V360.5H119.337V351.773ZM132.028 360.632C131.613 360.632 131.239 360.558 130.907 360.411C130.577 360.26 130.316 360.038 130.123 359.746C129.933 359.453 129.837 359.092 129.837 358.663C129.837 358.294 129.906 357.989 130.042 357.747C130.178 357.506 130.364 357.312 130.6 357.168C130.836 357.023 131.102 356.913 131.397 356.839C131.695 356.763 132.004 356.707 132.322 356.673C132.705 356.634 133.016 356.598 133.255 356.567C133.494 356.533 133.667 356.482 133.775 356.413C133.886 356.342 133.941 356.233 133.941 356.085V356.06C133.941 355.739 133.846 355.49 133.656 355.314C133.465 355.138 133.191 355.05 132.833 355.05C132.455 355.05 132.156 355.132 131.934 355.297C131.715 355.462 131.567 355.656 131.491 355.881L130.05 355.676C130.164 355.278 130.352 354.946 130.613 354.679C130.874 354.409 131.194 354.207 131.572 354.074C131.95 353.938 132.367 353.869 132.825 353.869C133.14 353.869 133.454 353.906 133.766 353.98C134.079 354.054 134.364 354.176 134.623 354.347C134.881 354.514 135.089 354.743 135.245 355.033C135.404 355.322 135.484 355.685 135.484 356.119V360.5H134.001V359.601H133.95C133.856 359.783 133.724 359.953 133.553 360.112C133.386 360.268 133.174 360.395 132.918 360.491C132.665 360.585 132.369 360.632 132.028 360.632ZM132.428 359.499C132.738 359.499 133.006 359.437 133.234 359.315C133.461 359.19 133.636 359.026 133.758 358.821C133.883 358.616 133.945 358.393 133.945 358.152V357.381C133.897 357.42 133.815 357.457 133.698 357.491C133.585 357.526 133.457 357.555 133.315 357.581C133.173 357.607 133.032 357.629 132.893 357.649C132.754 357.669 132.633 357.686 132.531 357.7C132.3 357.732 132.094 357.783 131.913 357.854C131.731 357.925 131.587 358.024 131.482 358.152C131.377 358.277 131.325 358.439 131.325 358.638C131.325 358.922 131.428 359.136 131.636 359.281C131.843 359.426 132.107 359.499 132.428 359.499ZM140.303 353.955V355.148H136.54V353.955H140.303ZM137.469 352.386H139.012V358.531C139.012 358.739 139.043 358.898 139.106 359.009C139.171 359.116 139.256 359.19 139.362 359.23C139.467 359.27 139.583 359.29 139.711 359.29C139.808 359.29 139.896 359.283 139.975 359.268C140.058 359.254 140.12 359.241 140.163 359.23L140.423 360.436C140.34 360.464 140.222 360.496 140.069 360.53C139.918 360.564 139.734 360.584 139.515 360.589C139.129 360.601 138.781 360.543 138.471 360.415C138.161 360.284 137.915 360.082 137.734 359.81C137.555 359.537 137.467 359.196 137.469 358.787V352.386ZM144.378 360.628C143.725 360.628 143.164 360.484 142.695 360.197C142.229 359.911 141.87 359.514 141.617 359.009C141.367 358.5 141.242 357.915 141.242 357.253C141.242 356.588 141.37 356.001 141.625 355.493C141.881 354.982 142.242 354.584 142.708 354.3C143.176 354.013 143.73 353.869 144.37 353.869C144.901 353.869 145.371 353.967 145.78 354.163C146.192 354.357 146.52 354.631 146.765 354.986C147.009 355.338 147.148 355.75 147.182 356.222H145.708C145.648 355.906 145.506 355.643 145.282 355.433C145.06 355.22 144.763 355.114 144.391 355.114C144.076 355.114 143.799 355.199 143.56 355.369C143.321 355.537 143.135 355.778 143.002 356.094C142.871 356.409 142.806 356.787 142.806 357.227C142.806 357.673 142.871 358.057 143.002 358.378C143.132 358.696 143.316 358.942 143.551 359.115C143.79 359.286 144.07 359.371 144.391 359.371C144.618 359.371 144.821 359.328 145 359.243C145.182 359.155 145.334 359.028 145.456 358.864C145.578 358.699 145.662 358.499 145.708 358.263H147.182C147.145 358.726 147.009 359.136 146.773 359.494C146.537 359.849 146.216 360.128 145.81 360.33C145.404 360.528 144.926 360.628 144.378 360.628ZM149.991 356.665V360.5H148.449V351.773H149.957V355.067H150.034C150.188 354.697 150.425 354.406 150.746 354.193C151.07 353.977 151.482 353.869 151.982 353.869C152.436 353.869 152.832 353.964 153.17 354.155C153.509 354.345 153.77 354.624 153.955 354.99C154.142 355.357 154.236 355.804 154.236 356.332V360.5H152.693V356.571C152.693 356.131 152.58 355.788 152.352 355.544C152.128 355.297 151.812 355.173 151.406 355.173C151.134 355.173 150.889 355.233 150.673 355.352C150.46 355.469 150.293 355.638 150.17 355.859C150.051 356.081 149.991 356.349 149.991 356.665Z" fill="white"/>
</g>
<g filter="url(#filter2_d_578_3358)">
<path d="M30 362C30 355.373 35.3726 350 42 350H298C304.627 350 310 355.373 310 362V478C310 484.627 304.627 490 298 490H42C35.3726 490 30 484.627 30 478V362Z" fill="#1A1A1A" shape-rendering="crispEdges"/>
<path d="M42 350.75H298C304.213 350.75 309.25 355.787 309.25 362V478C309.25 484.213 304.213 489.25 298 489.25H42C35.7868 489.25 30.75 484.213 30.75 478V362C30.75 355.787 35.7868 350.75 42 350.75Z" stroke="#999999" stroke-width="1.5" shape-rendering="crispEdges"/>
<path d="M54 394C54 382.954 62.9543 374 74 374C85.0457 374 94 382.954 94 394C94 405.046 85.0457 414 74 414C62.9543 414 54 405.046 54 394Z" fill="#666666"/>
<path d="M54 431C54 428.239 56.2386 426 59 426H249C251.761 426 254 428.239 254 431C254 433.761 251.761 436 249 436H59C56.2386 436 54 433.761 54 431Z" fill="#CCCCCC"/>
<path d="M54 456C54 453.791 55.7909 452 58 452H290C292.209 452 294 453.791 294 456C294 458.209 292.209 460 290 460H58C55.7909 460 54 458.209 54 456Z" fill="#666666"/>
<path d="M54 480C54 477.791 55.7909 476 58 476H230C232.209 476 234 477.791 234 480C234 482.209 232.209 484 230 484H58C55.7909 484 54 482.209 54 480Z" fill="#666666"/>
<path d="M54 516C54 507.163 61.1634 500 70 500H151C159.837 500 167 507.163 167 516C167 524.837 159.837 532 151 532H70C61.1634 532 54 524.837 54 516Z" fill="#333333"/>
<path d="M82 524H66V508H82V524Z" stroke="white"/>
<path d="M79.3334 512L72 519.333L68.6667 516" stroke="white" stroke-width="1.33333" stroke-linecap="round" stroke-linejoin="round"/>
<path d="M93.8054 511.653C94.223 511.656 94.6293 511.73 95.0241 511.875C95.4219 512.017 95.7798 512.25 96.098 512.574C96.4162 512.895 96.669 513.325 96.8565 513.865C97.044 514.405 97.1378 515.072 97.1378 515.868C97.1406 516.618 97.0611 517.288 96.8991 517.879C96.7401 518.467 96.5114 518.964 96.2131 519.371C95.9148 519.777 95.5554 520.087 95.1349 520.3C94.7145 520.513 94.2415 520.619 93.7159 520.619C93.1648 520.619 92.6761 520.511 92.25 520.295C91.8267 520.08 91.4844 519.784 91.223 519.409C90.9616 519.034 90.8011 518.605 90.7415 518.122H92.2969C92.3764 518.469 92.5384 518.744 92.7827 518.949C93.0298 519.151 93.3409 519.251 93.7159 519.251C94.321 519.251 94.7869 518.989 95.1136 518.463C95.4403 517.937 95.6037 517.207 95.6037 516.273H95.544C95.4048 516.523 95.2244 516.739 95.0028 516.92C94.7813 517.099 94.5298 517.237 94.2486 517.334C93.9702 517.43 93.6747 517.479 93.3622 517.479C92.8509 517.479 92.3906 517.357 91.9815 517.112C91.5753 516.868 91.2528 516.533 91.0142 516.107C90.7784 515.68 90.6591 515.193 90.6562 514.645C90.6562 514.077 90.7869 513.567 91.0483 513.115C91.3125 512.661 91.6804 512.303 92.152 512.041C92.6236 511.777 93.1747 511.648 93.8054 511.653ZM93.8097 512.932C93.5028 512.932 93.2259 513.007 92.9787 513.158C92.7344 513.305 92.5412 513.507 92.3991 513.763C92.2599 514.016 92.1903 514.298 92.1903 514.611C92.1932 514.92 92.2628 515.202 92.3991 515.455C92.5384 515.707 92.7273 515.908 92.9659 516.055C93.2074 516.203 93.483 516.277 93.7926 516.277C94.0227 516.277 94.2372 516.233 94.4361 516.145C94.6349 516.057 94.8082 515.935 94.956 515.778C95.1065 515.619 95.223 515.439 95.3054 515.237C95.3906 515.036 95.4318 514.822 95.429 514.598C95.429 514.3 95.358 514.024 95.2159 513.771C95.0767 513.518 94.8849 513.315 94.6406 513.162C94.3991 513.009 94.1222 512.932 93.8097 512.932ZM98.5568 520.5V519.358L101.587 516.388C101.876 516.095 102.118 515.835 102.311 515.608C102.504 515.381 102.649 515.161 102.746 514.947C102.842 514.734 102.891 514.507 102.891 514.266C102.891 513.99 102.828 513.754 102.703 513.558C102.578 513.359 102.406 513.206 102.188 513.098C101.969 512.99 101.72 512.936 101.442 512.936C101.155 512.936 100.903 512.996 100.688 513.115C100.472 513.232 100.304 513.398 100.185 513.614C100.068 513.83 100.01 514.087 100.01 514.385H98.5057C98.5057 513.831 98.6321 513.349 98.8849 512.94C99.1378 512.531 99.4858 512.214 99.929 511.99C100.375 511.766 100.886 511.653 101.463 511.653C102.048 511.653 102.563 511.763 103.006 511.982C103.449 512.2 103.793 512.5 104.037 512.881C104.284 513.261 104.408 513.696 104.408 514.185C104.408 514.511 104.345 514.832 104.22 515.148C104.095 515.463 103.875 515.812 103.56 516.196C103.247 516.58 102.808 517.044 102.243 517.589L100.739 519.119V519.179H104.54V520.5H98.5568ZM110.676 518.864V518.403C110.676 518.065 110.747 517.754 110.889 517.47C111.034 517.186 111.244 516.957 111.52 516.784C111.795 516.611 112.129 516.524 112.521 516.524C112.925 516.524 113.263 516.611 113.536 516.784C113.808 516.955 114.014 517.182 114.153 517.466C114.295 517.75 114.366 518.062 114.366 518.403V518.864C114.366 519.202 114.295 519.513 114.153 519.797C114.011 520.081 113.803 520.31 113.527 520.483C113.254 520.656 112.919 520.743 112.521 520.743C112.124 520.743 111.787 520.656 111.511 520.483C111.236 520.31 111.027 520.081 110.885 519.797C110.746 519.513 110.676 519.202 110.676 518.864ZM111.788 518.403V518.864C111.788 519.088 111.842 519.294 111.95 519.482C112.058 519.669 112.249 519.763 112.521 519.763C112.797 519.763 112.986 519.67 113.088 519.486C113.193 519.298 113.246 519.091 113.246 518.864V518.403C113.246 518.176 113.196 517.969 113.097 517.781C112.997 517.591 112.805 517.496 112.521 517.496C112.254 517.496 112.065 517.591 111.955 517.781C111.844 517.969 111.788 518.176 111.788 518.403ZM106.24 513.869V513.409C106.24 513.068 106.313 512.756 106.457 512.472C106.602 512.187 106.813 511.96 107.088 511.79C107.364 511.616 107.697 511.53 108.089 511.53C108.49 511.53 108.827 511.616 109.099 511.79C109.375 511.96 109.582 512.187 109.722 512.472C109.861 512.756 109.93 513.068 109.93 513.409V513.869C109.93 514.21 109.859 514.523 109.717 514.807C109.578 515.088 109.371 515.314 109.095 515.484C108.82 515.655 108.484 515.74 108.089 515.74C107.689 515.74 107.351 515.655 107.075 515.484C106.803 515.314 106.595 515.087 106.453 514.803C106.311 514.518 106.24 514.207 106.24 513.869ZM107.361 513.409V513.869C107.361 514.097 107.413 514.304 107.518 514.491C107.626 514.676 107.817 514.768 108.089 514.768C108.362 514.768 108.55 514.676 108.652 514.491C108.757 514.304 108.81 514.097 108.81 513.869V513.409C108.81 513.182 108.76 512.974 108.661 512.787C108.561 512.597 108.371 512.501 108.089 512.501C107.82 512.501 107.631 512.597 107.523 512.787C107.415 512.977 107.361 513.185 107.361 513.409ZM106.726 520.5L112.726 511.773H113.791L107.791 520.5H106.726ZM119.197 511.773H121.131L123.722 518.097H123.825L126.415 511.773H128.35V520.5H126.833V514.504H126.752L124.34 520.474H123.207L120.795 514.491H120.714V520.5H119.197V511.773ZM131.887 520.632C131.472 520.632 131.099 520.558 130.766 520.411C130.437 520.26 130.175 520.038 129.982 519.746C129.792 519.453 129.697 519.092 129.697 518.663C129.697 518.294 129.765 517.989 129.901 517.747C130.038 517.506 130.224 517.312 130.46 517.168C130.695 517.023 130.961 516.913 131.256 516.839C131.555 516.763 131.863 516.707 132.181 516.673C132.565 516.634 132.876 516.598 133.114 516.567C133.353 516.533 133.526 516.482 133.634 516.413C133.745 516.342 133.8 516.233 133.8 516.085V516.06C133.8 515.739 133.705 515.49 133.515 515.314C133.325 515.138 133.05 515.05 132.692 515.05C132.315 515.05 132.015 515.132 131.793 515.297C131.575 515.462 131.427 515.656 131.35 515.881L129.91 515.676C130.023 515.278 130.211 514.946 130.472 514.679C130.734 514.409 131.053 514.207 131.431 514.074C131.809 513.938 132.227 513.869 132.684 513.869C132.999 513.869 133.313 513.906 133.626 513.98C133.938 514.054 134.224 514.176 134.482 514.347C134.741 514.514 134.948 514.743 135.104 515.033C135.263 515.322 135.343 515.685 135.343 516.119V520.5H133.86V519.601H133.809C133.715 519.783 133.583 519.953 133.413 520.112C133.245 520.268 133.033 520.395 132.778 520.491C132.525 520.585 132.228 520.632 131.887 520.632ZM132.288 519.499C132.597 519.499 132.866 519.437 133.093 519.315C133.32 519.19 133.495 519.026 133.617 518.821C133.742 518.616 133.805 518.393 133.805 518.152V517.381C133.756 517.42 133.674 517.457 133.558 517.491C133.444 517.526 133.316 517.555 133.174 517.581C133.032 517.607 132.891 517.629 132.752 517.649C132.613 517.669 132.492 517.686 132.39 517.7C132.16 517.732 131.954 517.783 131.772 517.854C131.59 517.925 131.447 518.024 131.342 518.152C131.237 518.277 131.184 518.439 131.184 518.638C131.184 518.922 131.288 519.136 131.495 519.281C131.702 519.426 131.967 519.499 132.288 519.499ZM140.163 513.955V515.148H136.4V513.955H140.163ZM137.329 512.386H138.871V518.531C138.871 518.739 138.903 518.898 138.965 519.009C139.031 519.116 139.116 519.19 139.221 519.23C139.326 519.27 139.442 519.29 139.57 519.29C139.667 519.29 139.755 519.283 139.835 519.268C139.917 519.254 139.979 519.241 140.022 519.23L140.282 520.436C140.2 520.464 140.082 520.496 139.928 520.53C139.778 520.564 139.593 520.584 139.374 520.589C138.988 520.601 138.64 520.543 138.33 520.415C138.021 520.284 137.775 520.082 137.593 519.81C137.414 519.537 137.326 519.196 137.329 518.787V512.386ZM144.238 520.628C143.584 520.628 143.023 520.484 142.554 520.197C142.088 519.911 141.729 519.514 141.476 519.009C141.226 518.5 141.101 517.915 141.101 517.253C141.101 516.588 141.229 516.001 141.485 515.493C141.74 514.982 142.101 514.584 142.567 514.3C143.036 514.013 143.59 513.869 144.229 513.869C144.76 513.869 145.23 513.967 145.64 514.163C146.051 514.357 146.38 514.631 146.624 514.986C146.868 515.338 147.007 515.75 147.042 516.222H145.567C145.507 515.906 145.365 515.643 145.141 515.433C144.919 515.22 144.623 515.114 144.25 515.114C143.935 515.114 143.658 515.199 143.419 515.369C143.181 515.537 142.995 515.778 142.861 516.094C142.73 516.409 142.665 516.787 142.665 517.227C142.665 517.673 142.73 518.057 142.861 518.378C142.992 518.696 143.175 518.942 143.411 519.115C143.65 519.286 143.929 519.371 144.25 519.371C144.478 519.371 144.681 519.328 144.86 519.243C145.042 519.155 145.194 519.028 145.316 518.864C145.438 518.699 145.522 518.499 145.567 518.263H147.042C147.005 518.726 146.868 519.136 146.632 519.494C146.397 519.849 146.076 520.128 145.669 520.33C145.263 520.528 144.786 520.628 144.238 520.628ZM149.851 516.665V520.5H148.308V511.773H149.817V515.067H149.893C150.047 514.697 150.284 514.406 150.605 514.193C150.929 513.977 151.341 513.869 151.841 513.869C152.295 513.869 152.692 513.964 153.03 514.155C153.368 514.345 153.629 514.624 153.814 514.99C154.001 515.357 154.095 515.804 154.095 516.332V520.5H152.553V516.571C152.553 516.131 152.439 515.788 152.212 515.544C151.987 515.297 151.672 515.173 151.266 515.173C150.993 515.173 150.749 515.233 150.533 515.352C150.32 515.469 150.152 515.638 150.03 515.859C149.911 516.081 149.851 516.349 149.851 516.665Z" fill="white"/>
</g>
<defs>
<filter id="filter0_d_578_3358" x="0" y="0" width="340" height="242" filterUnits="userSpaceOnUse" color-interpolation-filters="sRGB">
<feFlood flood-opacity="0" result="BackgroundImageFix"/>
<feColorMatrix in="SourceAlpha" type="matrix" values="0 0 0 0 0 0 0 0 0 0 0 0 0 0 0 0 0 0 127 0" result="hardAlpha"/>
<feOffset/>
<feGaussianBlur stdDeviation="15"/>
<feComposite in2="hardAlpha" operator="out"/>
<feColorMatrix type="matrix" values="0 0 0 0 1 0 0 0 0 1 0 0 0 0 1 0 0 0 0.12549 0"/>
<feBlend mode="normal" in2="BackgroundImageFix" result="effect1_dropShadow_578_3358"/>
<feBlend mode="normal" in="SourceGraphic" in2="effect1_dropShadow_578_3358" result="shape"/>
</filter>
<filter id="filter1_d_578_3358" x="10" y="170" width="320" height="222" filterUnits="userSpaceOnUse" color-interpolation-filters="sRGB">
<feFlood flood-opacity="0" result="BackgroundImageFix"/>
<feColorMatrix in="SourceAlpha" type="matrix" values="0 0 0 0 0 0 0 0 0 0 0 0 0 0 0 0 0 0 127 0" result="hardAlpha"/>
<feOffset/>
<feGaussianBlur stdDeviation="10"/>
<feComposite in2="hardAlpha" operator="out"/>
<feColorMatrix type="matrix" values="0 0 0 0 1 0 0 0 0 1 0 0 0 0 1 0 0 0 0.0823529 0"/>
<feBlend mode="normal" in2="BackgroundImageFix" result="effect1_dropShadow_578_3358"/>
<feBlend mode="normal" in="SourceGraphic" in2="effect1_dropShadow_578_3358" result="shape"/>
</filter>
<filter id="filter2_d_578_3358" x="10" y="330" width="320" height="222" filterUnits="userSpaceOnUse" color-interpolation-filters="sRGB">
<feFlood flood-opacity="0" result="BackgroundImageFix"/>
<feColorMatrix in="SourceAlpha" type="matrix" values="0 0 0 0 0 0 0 0 0 0 0 0 0 0 0 0 0 0 127 0" result="hardAlpha"/>
<feOffset/>
<feGaussianBlur stdDeviation="10"/>
<feComposite in2="hardAlpha" operator="out"/>
<feColorMatrix type="matrix" values="0 0 0 0 1 0 0 0 0 1 0 0 0 0 1 0 0 0 0.0823529 0"/>
<feBlend mode="normal" in2="BackgroundImageFix" result="effect1_dropShadow_578_3358"/>
<feBlend mode="normal" in="SourceGraphic" in2="effect1_dropShadow_578_3358" result="shape"/>
</filter>
</defs>
</svg>
