<svg width="1040" height="640" viewBox="0 0 1040 640" fill="none" xmlns="http://www.w3.org/2000/svg">
<g opacity="0.4">
<path d="M184 144.5C201.397 144.5 215.5 158.603 215.5 176C215.5 193.397 201.397 207.5 184 207.5C166.603 207.5 152.5 193.397 152.5 176C152.5 158.603 166.603 144.5 184 144.5Z" fill="#1A1A1A"/>
<path d="M184 144.5C201.397 144.5 215.5 158.603 215.5 176C215.5 193.397 201.397 207.5 184 207.5C166.603 207.5 152.5 193.397 152.5 176C152.5 158.603 166.603 144.5 184 144.5Z" stroke="#333333"/>
<path d="M178 176C178 172.686 180.686 170 184 170C187.314 170 190 172.686 190 176C190 179.314 187.314 182 184 182C180.686 182 178 179.314 178 176Z" fill="#404040"/>
</g>
<g opacity="0.3">
<path d="M280 144.5C297.397 144.5 311.5 158.603 311.5 176C311.5 193.397 297.397 207.5 280 207.5C262.603 207.5 248.5 193.397 248.5 176C248.5 158.603 262.603 144.5 280 144.5Z" fill="#1A1A1A"/>
<path d="M280 144.5C297.397 144.5 311.5 158.603 311.5 176C311.5 193.397 297.397 207.5 280 207.5C262.603 207.5 248.5 193.397 248.5 176C248.5 158.603 262.603 144.5 280 144.5Z" stroke="#333333"/>
<path d="M274 176C274 172.686 276.686 170 280 170C283.314 170 286 172.686 286 176C286 179.314 283.314 182 280 182C276.686 182 274 179.314 274 176Z" fill="#404040"/>
</g>
<g opacity="0.5">
<path d="M376 144.5C393.397 144.5 407.5 158.603 407.5 176C407.5 193.397 393.397 207.5 376 207.5C358.603 207.5 344.5 193.397 344.5 176C344.5 158.603 358.603 144.5 376 144.5Z" fill="#1A1A1A"/>
<path d="M376 144.5C393.397 144.5 407.5 158.603 407.5 176C407.5 193.397 393.397 207.5 376 207.5C358.603 207.5 344.5 193.397 344.5 176C344.5 158.603 358.603 144.5 376 144.5Z" stroke="#333333"/>
<path d="M370 176C370 172.686 372.686 170 376 170C379.314 170 382 172.686 382 176C382 179.314 379.314 182 376 182C372.686 182 370 179.314 370 176Z" fill="#404040"/>
</g>
<g opacity="0.4">
<path d="M472 144.5C489.397 144.5 503.5 158.603 503.5 176C503.5 193.397 489.397 207.5 472 207.5C454.603 207.5 440.5 193.397 440.5 176C440.5 158.603 454.603 144.5 472 144.5Z" fill="#1A1A1A"/>
<path d="M472 144.5C489.397 144.5 503.5 158.603 503.5 176C503.5 193.397 489.397 207.5 472 207.5C454.603 207.5 440.5 193.397 440.5 176C440.5 158.603 454.603 144.5 472 144.5Z" stroke="#333333"/>
<path d="M466 176C466 172.686 468.686 170 472 170C475.314 170 478 172.686 478 176C478 179.314 475.314 182 472 182C468.686 182 466 179.314 466 176Z" fill="#404040"/>
</g>
<g opacity="0.35">
<path d="M568 144.5C585.397 144.5 599.5 158.603 599.5 176C599.5 193.397 585.397 207.5 568 207.5C550.603 207.5 536.5 193.397 536.5 176C536.5 158.603 550.603 144.5 568 144.5Z" fill="#1A1A1A"/>
<path d="M568 144.5C585.397 144.5 599.5 158.603 599.5 176C599.5 193.397 585.397 207.5 568 207.5C550.603 207.5 536.5 193.397 536.5 176C536.5 158.603 550.603 144.5 568 144.5Z" stroke="#333333"/>
<path d="M562 176C562 172.686 564.686 170 568 170C571.314 170 574 172.686 574 176C574 179.314 571.314 182 568 182C564.686 182 562 179.314 562 176Z" fill="#404040"/>
</g>
<g opacity="0.45">
<path d="M664 144.5C681.397 144.5 695.5 158.603 695.5 176C695.5 193.397 681.397 207.5 664 207.5C646.603 207.5 632.5 193.397 632.5 176C632.5 158.603 646.603 144.5 664 144.5Z" fill="#1A1A1A"/>
<path d="M664 144.5C681.397 144.5 695.5 158.603 695.5 176C695.5 193.397 681.397 207.5 664 207.5C646.603 207.5 632.5 193.397 632.5 176C632.5 158.603 646.603 144.5 664 144.5Z" stroke="#333333"/>
<path d="M658 176C658 172.686 660.686 170 664 170C667.314 170 670 172.686 670 176C670 179.314 667.314 182 664 182C660.686 182 658 179.314 658 176Z" fill="#404040"/>
</g>
<g opacity="0.4">
<path d="M760 144.5C777.397 144.5 791.5 158.603 791.5 176C791.5 193.397 777.397 207.5 760 207.5C742.603 207.5 728.5 193.397 728.5 176C728.5 158.603 742.603 144.5 760 144.5Z" fill="#1A1A1A"/>
<path d="M760 144.5C777.397 144.5 791.5 158.603 791.5 176C791.5 193.397 777.397 207.5 760 207.5C742.603 207.5 728.5 193.397 728.5 176C728.5 158.603 742.603 144.5 760 144.5Z" stroke="#333333"/>
<path d="M754 176C754 172.686 756.686 170 760 170C763.314 170 766 172.686 766 176C766 179.314 763.314 182 760 182C756.686 182 754 179.314 754 176Z" fill="#404040"/>
</g>
<g opacity="0.3">
<path d="M856 144.5C873.397 144.5 887.5 158.603 887.5 176C887.5 193.397 873.397 207.5 856 207.5C838.603 207.5 824.5 193.397 824.5 176C824.5 158.603 838.603 144.5 856 144.5Z" fill="#1A1A1A"/>
<path d="M856 144.5C873.397 144.5 887.5 158.603 887.5 176C887.5 193.397 873.397 207.5 856 207.5C838.603 207.5 824.5 193.397 824.5 176C824.5 158.603 838.603 144.5 856 144.5Z" stroke="#333333"/>
<path d="M850 176C850 172.686 852.686 170 856 170C859.314 170 862 172.686 862 176C862 179.314 859.314 182 856 182C852.686 182 850 179.314 850 176Z" fill="#404040"/>
</g>
<g opacity="0.35">
<path d="M168 224.5C185.397 224.5 199.5 238.603 199.5 256C199.5 273.397 185.397 287.5 168 287.5C150.603 287.5 136.5 273.397 136.5 256C136.5 238.603 150.603 224.5 168 224.5Z" fill="#1A1A1A"/>
<path d="M168 224.5C185.397 224.5 199.5 238.603 199.5 256C199.5 273.397 185.397 287.5 168 287.5C150.603 287.5 136.5 273.397 136.5 256C136.5 238.603 150.603 224.5 168 224.5Z" stroke="#333333"/>
<path d="M162 256C162 252.686 164.686 250 168 250C171.314 250 174 252.686 174 256C174 259.314 171.314 262 168 262C164.686 262 162 259.314 162 256Z" fill="#404040"/>
</g>
<g opacity="0.5">
<path d="M264 224.5C281.397 224.5 295.5 238.603 295.5 256C295.5 273.397 281.397 287.5 264 287.5C246.603 287.5 232.5 273.397 232.5 256C232.5 238.603 246.603 224.5 264 224.5Z" fill="#1A1A1A"/>
<path d="M264 224.5C281.397 224.5 295.5 238.603 295.5 256C295.5 273.397 281.397 287.5 264 287.5C246.603 287.5 232.5 273.397 232.5 256C232.5 238.603 246.603 224.5 264 224.5Z" stroke="#333333"/>
<path d="M258 256C258 252.686 260.686 250 264 250C267.314 250 270 252.686 270 256C270 259.314 267.314 262 264 262C260.686 262 258 259.314 258 256Z" fill="#404040"/>
</g>
<g opacity="0.4">
<path d="M360 224.5C377.397 224.5 391.5 238.603 391.5 256C391.5 273.397 377.397 287.5 360 287.5C342.603 287.5 328.5 273.397 328.5 256C328.5 238.603 342.603 224.5 360 224.5Z" fill="#1A1A1A"/>
<path d="M360 224.5C377.397 224.5 391.5 238.603 391.5 256C391.5 273.397 377.397 287.5 360 287.5C342.603 287.5 328.5 273.397 328.5 256C328.5 238.603 342.603 224.5 360 224.5Z" stroke="#333333"/>
<path d="M354 256C354 252.686 356.686 250 360 250C363.314 250 366 252.686 366 256C366 259.314 363.314 262 360 262C356.686 262 354 259.314 354 256Z" fill="#404040"/>
</g>
<g filter="url(#filter0_d_578_3008)">
<path d="M424 256C424 229.49 445.49 208 472 208C498.51 208 520 229.49 520 256C520 282.51 498.51 304 472 304C445.49 304 424 282.51 424 256Z" fill="white" shape-rendering="crispEdges"/>
<path d="M472 209C497.957 209 519 230.043 519 256C519 281.957 497.957 303 472 303C446.043 303 425 281.957 425 256C425 230.043 446.043 209 472 209Z" stroke="white" stroke-width="2" shape-rendering="crispEdges"/>
<path d="M432 256C432 233.909 449.909 216 472 216C494.091 216 512 233.909 512 256C512 278.091 494.091 296 472 296C449.909 296 432 278.091 432 256Z" fill="url(#paint0_linear_578_3008)"/>
<g filter="url(#filter1_d_578_3008)">
<path d="M460 256C460 249.373 465.373 244 472 244C478.627 244 484 249.373 484 256C484 262.627 478.627 268 472 268C465.373 268 460 262.627 460 256Z" fill="white"/>
</g>
</g>
<g opacity="0.4">
<path d="M584 224.5C601.397 224.5 615.5 238.603 615.5 256C615.5 273.397 601.397 287.5 584 287.5C566.603 287.5 552.5 273.397 552.5 256C552.5 238.603 566.603 224.5 584 224.5Z" fill="#1A1A1A"/>
<path d="M584 224.5C601.397 224.5 615.5 238.603 615.5 256C615.5 273.397 601.397 287.5 584 287.5C566.603 287.5 552.5 273.397 552.5 256C552.5 238.603 566.603 224.5 584 224.5Z" stroke="#333333"/>
<path d="M578 256C578 252.686 580.686 250 584 250C587.314 250 590 252.686 590 256C590 259.314 587.314 262 584 262C580.686 262 578 259.314 578 256Z" fill="#404040"/>
</g>
<g opacity="0.3">
<path d="M680 224.5C697.397 224.5 711.5 238.603 711.5 256C711.5 273.397 697.397 287.5 680 287.5C662.603 287.5 648.5 273.397 648.5 256C648.5 238.603 662.603 224.5 680 224.5Z" fill="#1A1A1A"/>
<path d="M680 224.5C697.397 224.5 711.5 238.603 711.5 256C711.5 273.397 697.397 287.5 680 287.5C662.603 287.5 648.5 273.397 648.5 256C648.5 238.603 662.603 224.5 680 224.5Z" stroke="#333333"/>
<path d="M674 256C674 252.686 676.686 250 680 250C683.314 250 686 252.686 686 256C686 259.314 683.314 262 680 262C676.686 262 674 259.314 674 256Z" fill="#404040"/>
</g>
<g opacity="0.45">
<path d="M776 224.5C793.397 224.5 807.5 238.603 807.5 256C807.5 273.397 793.397 287.5 776 287.5C758.603 287.5 744.5 273.397 744.5 256C744.5 238.603 758.603 224.5 776 224.5Z" fill="#1A1A1A"/>
<path d="M776 224.5C793.397 224.5 807.5 238.603 807.5 256C807.5 273.397 793.397 287.5 776 287.5C758.603 287.5 744.5 273.397 744.5 256C744.5 238.603 758.603 224.5 776 224.5Z" stroke="#333333"/>
<path d="M770 256C770 252.686 772.686 250 776 250C779.314 250 782 252.686 782 256C782 259.314 779.314 262 776 262C772.686 262 770 259.314 770 256Z" fill="#404040"/>
</g>
<g opacity="0.35">
<path d="M872 224.5C889.397 224.5 903.5 238.603 903.5 256C903.5 273.397 889.397 287.5 872 287.5C854.603 287.5 840.5 273.397 840.5 256C840.5 238.603 854.603 224.5 872 224.5Z" fill="#1A1A1A"/>
<path d="M872 224.5C889.397 224.5 903.5 238.603 903.5 256C903.5 273.397 889.397 287.5 872 287.5C854.603 287.5 840.5 273.397 840.5 256C840.5 238.603 854.603 224.5 872 224.5Z" stroke="#333333"/>
<path d="M866 256C866 252.686 868.686 250 872 250C875.314 250 878 252.686 878 256C878 259.314 875.314 262 872 262C868.686 262 866 259.314 866 256Z" fill="#404040"/>
</g>
<g opacity="0.4">
<path d="M184 304.5C201.397 304.5 215.5 318.603 215.5 336C215.5 353.397 201.397 367.5 184 367.5C166.603 367.5 152.5 353.397 152.5 336C152.5 318.603 166.603 304.5 184 304.5Z" fill="#1A1A1A"/>
<path d="M184 304.5C201.397 304.5 215.5 318.603 215.5 336C215.5 353.397 201.397 367.5 184 367.5C166.603 367.5 152.5 353.397 152.5 336C152.5 318.603 166.603 304.5 184 304.5Z" stroke="#333333"/>
<path d="M178 336C178 332.686 180.686 330 184 330C187.314 330 190 332.686 190 336C190 339.314 187.314 342 184 342C180.686 342 178 339.314 178 336Z" fill="#404040"/>
</g>
<g opacity="0.45">
<path d="M280 304.5C297.397 304.5 311.5 318.603 311.5 336C311.5 353.397 297.397 367.5 280 367.5C262.603 367.5 248.5 353.397 248.5 336C248.5 318.603 262.603 304.5 280 304.5Z" fill="#1A1A1A"/>
<path d="M280 304.5C297.397 304.5 311.5 318.603 311.5 336C311.5 353.397 297.397 367.5 280 367.5C262.603 367.5 248.5 353.397 248.5 336C248.5 318.603 262.603 304.5 280 304.5Z" stroke="#333333"/>
<path d="M274 336C274 332.686 276.686 330 280 330C283.314 330 286 332.686 286 336C286 339.314 283.314 342 280 342C276.686 342 274 339.314 274 336Z" fill="#404040"/>
</g>
<g opacity="0.3">
<path d="M376 304.5C393.397 304.5 407.5 318.603 407.5 336C407.5 353.397 393.397 367.5 376 367.5C358.603 367.5 344.5 353.397 344.5 336C344.5 318.603 358.603 304.5 376 304.5Z" fill="#1A1A1A"/>
<path d="M376 304.5C393.397 304.5 407.5 318.603 407.5 336C407.5 353.397 393.397 367.5 376 367.5C358.603 367.5 344.5 353.397 344.5 336C344.5 318.603 358.603 304.5 376 304.5Z" stroke="#333333"/>
<path d="M370 336C370 332.686 372.686 330 376 330C379.314 330 382 332.686 382 336C382 339.314 379.314 342 376 342C372.686 342 370 339.314 370 336Z" fill="#404040"/>
</g>
<g opacity="0.5">
<path d="M472 304.5C489.397 304.5 503.5 318.603 503.5 336C503.5 353.397 489.397 367.5 472 367.5C454.603 367.5 440.5 353.397 440.5 336C440.5 318.603 454.603 304.5 472 304.5Z" fill="#1A1A1A"/>
<path d="M472 304.5C489.397 304.5 503.5 318.603 503.5 336C503.5 353.397 489.397 367.5 472 367.5C454.603 367.5 440.5 353.397 440.5 336C440.5 318.603 454.603 304.5 472 304.5Z" stroke="#333333"/>
<path d="M466 336C466 332.686 468.686 330 472 330C475.314 330 478 332.686 478 336C478 339.314 475.314 342 472 342C468.686 342 466 339.314 466 336Z" fill="#404040"/>
</g>
<g opacity="0.35">
<path d="M568 304.5C585.397 304.5 599.5 318.603 599.5 336C599.5 353.397 585.397 367.5 568 367.5C550.603 367.5 536.5 353.397 536.5 336C536.5 318.603 550.603 304.5 568 304.5Z" fill="#1A1A1A"/>
<path d="M568 304.5C585.397 304.5 599.5 318.603 599.5 336C599.5 353.397 585.397 367.5 568 367.5C550.603 367.5 536.5 353.397 536.5 336C536.5 318.603 550.603 304.5 568 304.5Z" stroke="#333333"/>
<path d="M562 336C562 332.686 564.686 330 568 330C571.314 330 574 332.686 574 336C574 339.314 571.314 342 568 342C564.686 342 562 339.314 562 336Z" fill="#404040"/>
</g>
<g opacity="0.4">
<path d="M664 304.5C681.397 304.5 695.5 318.603 695.5 336C695.5 353.397 681.397 367.5 664 367.5C646.603 367.5 632.5 353.397 632.5 336C632.5 318.603 646.603 304.5 664 304.5Z" fill="#1A1A1A"/>
<path d="M664 304.5C681.397 304.5 695.5 318.603 695.5 336C695.5 353.397 681.397 367.5 664 367.5C646.603 367.5 632.5 353.397 632.5 336C632.5 318.603 646.603 304.5 664 304.5Z" stroke="#333333"/>
<path d="M658 336C658 332.686 660.686 330 664 330C667.314 330 670 332.686 670 336C670 339.314 667.314 342 664 342C660.686 342 658 339.314 658 336Z" fill="#404040"/>
</g>
<g opacity="0.45">
<path d="M760 304.5C777.397 304.5 791.5 318.603 791.5 336C791.5 353.397 777.397 367.5 760 367.5C742.603 367.5 728.5 353.397 728.5 336C728.5 318.603 742.603 304.5 760 304.5Z" fill="#1A1A1A"/>
<path d="M760 304.5C777.397 304.5 791.5 318.603 791.5 336C791.5 353.397 777.397 367.5 760 367.5C742.603 367.5 728.5 353.397 728.5 336C728.5 318.603 742.603 304.5 760 304.5Z" stroke="#333333"/>
<path d="M754 336C754 332.686 756.686 330 760 330C763.314 330 766 332.686 766 336C766 339.314 763.314 342 760 342C756.686 342 754 339.314 754 336Z" fill="#404040"/>
</g>
<g opacity="0.3">
<path d="M856 304.5C873.397 304.5 887.5 318.603 887.5 336C887.5 353.397 873.397 367.5 856 367.5C838.603 367.5 824.5 353.397 824.5 336C824.5 318.603 838.603 304.5 856 304.5Z" fill="#1A1A1A"/>
<path d="M856 304.5C873.397 304.5 887.5 318.603 887.5 336C887.5 353.397 873.397 367.5 856 367.5C838.603 367.5 824.5 353.397 824.5 336C824.5 318.603 838.603 304.5 856 304.5Z" stroke="#333333"/>
<path d="M850 336C850 332.686 852.686 330 856 330C859.314 330 862 332.686 862 336C862 339.314 859.314 342 856 342C852.686 342 850 339.314 850 336Z" fill="#404040"/>
</g>
<g opacity="0.35">
<path d="M184 368.5C201.397 368.5 215.5 382.603 215.5 400C215.5 417.397 201.397 431.5 184 431.5C166.603 431.5 152.5 417.397 152.5 400C152.5 382.603 166.603 368.5 184 368.5Z" fill="#1A1A1A"/>
<path d="M184 368.5C201.397 368.5 215.5 382.603 215.5 400C215.5 417.397 201.397 431.5 184 431.5C166.603 431.5 152.5 417.397 152.5 400C152.5 382.603 166.603 368.5 184 368.5Z" stroke="#333333"/>
<path d="M178 400C178 396.686 180.686 394 184 394C187.314 394 190 396.686 190 400C190 403.314 187.314 406 184 406C180.686 406 178 403.314 178 400Z" fill="#404040"/>
</g>
<g opacity="0.4">
<path d="M280 368.5C297.397 368.5 311.5 382.603 311.5 400C311.5 417.397 297.397 431.5 280 431.5C262.603 431.5 248.5 417.397 248.5 400C248.5 382.603 262.603 368.5 280 368.5Z" fill="#1A1A1A"/>
<path d="M280 368.5C297.397 368.5 311.5 382.603 311.5 400C311.5 417.397 297.397 431.5 280 431.5C262.603 431.5 248.5 417.397 248.5 400C248.5 382.603 262.603 368.5 280 368.5Z" stroke="#333333"/>
<path d="M274 400C274 396.686 276.686 394 280 394C283.314 394 286 396.686 286 400C286 403.314 283.314 406 280 406C276.686 406 274 403.314 274 400Z" fill="#404040"/>
</g>
<g opacity="0.5">
<path d="M376 368.5C393.397 368.5 407.5 382.603 407.5 400C407.5 417.397 393.397 431.5 376 431.5C358.603 431.5 344.5 417.397 344.5 400C344.5 382.603 358.603 368.5 376 368.5Z" fill="#1A1A1A"/>
<path d="M376 368.5C393.397 368.5 407.5 382.603 407.5 400C407.5 417.397 393.397 431.5 376 431.5C358.603 431.5 344.5 417.397 344.5 400C344.5 382.603 358.603 368.5 376 368.5Z" stroke="#333333"/>
<path d="M370 400C370 396.686 372.686 394 376 394C379.314 394 382 396.686 382 400C382 403.314 379.314 406 376 406C372.686 406 370 403.314 370 400Z" fill="#404040"/>
</g>
<g opacity="0.3">
<path d="M472 368.5C489.397 368.5 503.5 382.603 503.5 400C503.5 417.397 489.397 431.5 472 431.5C454.603 431.5 440.5 417.397 440.5 400C440.5 382.603 454.603 368.5 472 368.5Z" fill="#1A1A1A"/>
<path d="M472 368.5C489.397 368.5 503.5 382.603 503.5 400C503.5 417.397 489.397 431.5 472 431.5C454.603 431.5 440.5 417.397 440.5 400C440.5 382.603 454.603 368.5 472 368.5Z" stroke="#333333"/>
<path d="M466 400C466 396.686 468.686 394 472 394C475.314 394 478 396.686 478 400C478 403.314 475.314 406 472 406C468.686 406 466 403.314 466 400Z" fill="#404040"/>
</g>
<g opacity="0.45">
<path d="M568 368.5C585.397 368.5 599.5 382.603 599.5 400C599.5 417.397 585.397 431.5 568 431.5C550.603 431.5 536.5 417.397 536.5 400C536.5 382.603 550.603 368.5 568 368.5Z" fill="#1A1A1A"/>
<path d="M568 368.5C585.397 368.5 599.5 382.603 599.5 400C599.5 417.397 585.397 431.5 568 431.5C550.603 431.5 536.5 417.397 536.5 400C536.5 382.603 550.603 368.5 568 368.5Z" stroke="#333333"/>
<path d="M562 400C562 396.686 564.686 394 568 394C571.314 394 574 396.686 574 400C574 403.314 571.314 406 568 406C564.686 406 562 403.314 562 400Z" fill="#404040"/>
</g>
<g opacity="0.4">
<path d="M664 368.5C681.397 368.5 695.5 382.603 695.5 400C695.5 417.397 681.397 431.5 664 431.5C646.603 431.5 632.5 417.397 632.5 400C632.5 382.603 646.603 368.5 664 368.5Z" fill="#1A1A1A"/>
<path d="M664 368.5C681.397 368.5 695.5 382.603 695.5 400C695.5 417.397 681.397 431.5 664 431.5C646.603 431.5 632.5 417.397 632.5 400C632.5 382.603 646.603 368.5 664 368.5Z" stroke="#333333"/>
<path d="M658 400C658 396.686 660.686 394 664 394C667.314 394 670 396.686 670 400C670 403.314 667.314 406 664 406C660.686 406 658 403.314 658 400Z" fill="#404040"/>
</g>
<g opacity="0.35">
<path d="M760 368.5C777.397 368.5 791.5 382.603 791.5 400C791.5 417.397 777.397 431.5 760 431.5C742.603 431.5 728.5 417.397 728.5 400C728.5 382.603 742.603 368.5 760 368.5Z" fill="#1A1A1A"/>
<path d="M760 368.5C777.397 368.5 791.5 382.603 791.5 400C791.5 417.397 777.397 431.5 760 431.5C742.603 431.5 728.5 417.397 728.5 400C728.5 382.603 742.603 368.5 760 368.5Z" stroke="#333333"/>
<path d="M754 400C754 396.686 756.686 394 760 394C763.314 394 766 396.686 766 400C766 403.314 763.314 406 760 406C756.686 406 754 403.314 754 400Z" fill="#404040"/>
</g>
<g opacity="0.5">
<path d="M856 368.5C873.397 368.5 887.5 382.603 887.5 400C887.5 417.397 873.397 431.5 856 431.5C838.603 431.5 824.5 417.397 824.5 400C824.5 382.603 838.603 368.5 856 368.5Z" fill="#1A1A1A"/>
<path d="M856 368.5C873.397 368.5 887.5 382.603 887.5 400C887.5 417.397 873.397 431.5 856 431.5C838.603 431.5 824.5 417.397 824.5 400C824.5 382.603 838.603 368.5 856 368.5Z" stroke="#333333"/>
<path d="M850 400C850 396.686 852.686 394 856 394C859.314 394 862 396.686 862 400C862 403.314 859.314 406 856 406C852.686 406 850 403.314 850 400Z" fill="#404040"/>
</g>
<g opacity="0.4">
<path d="M184 432.5C201.397 432.5 215.5 446.603 215.5 464C215.5 481.397 201.397 495.5 184 495.5C166.603 495.5 152.5 481.397 152.5 464C152.5 446.603 166.603 432.5 184 432.5Z" fill="#1A1A1A"/>
<path d="M184 432.5C201.397 432.5 215.5 446.603 215.5 464C215.5 481.397 201.397 495.5 184 495.5C166.603 495.5 152.5 481.397 152.5 464C152.5 446.603 166.603 432.5 184 432.5Z" stroke="#333333"/>
<path d="M178 464C178 460.686 180.686 458 184 458C187.314 458 190 460.686 190 464C190 467.314 187.314 470 184 470C180.686 470 178 467.314 178 464Z" fill="#404040"/>
</g>
<g opacity="0.3">
<path d="M280 432.5C297.397 432.5 311.5 446.603 311.5 464C311.5 481.397 297.397 495.5 280 495.5C262.603 495.5 248.5 481.397 248.5 464C248.5 446.603 262.603 432.5 280 432.5Z" fill="#1A1A1A"/>
<path d="M280 432.5C297.397 432.5 311.5 446.603 311.5 464C311.5 481.397 297.397 495.5 280 495.5C262.603 495.5 248.5 481.397 248.5 464C248.5 446.603 262.603 432.5 280 432.5Z" stroke="#333333"/>
<path d="M274 464C274 460.686 276.686 458 280 458C283.314 458 286 460.686 286 464C286 467.314 283.314 470 280 470C276.686 470 274 467.314 274 464Z" fill="#404040"/>
</g>
<g opacity="0.45">
<path d="M376 432.5C393.397 432.5 407.5 446.603 407.5 464C407.5 481.397 393.397 495.5 376 495.5C358.603 495.5 344.5 481.397 344.5 464C344.5 446.603 358.603 432.5 376 432.5Z" fill="#1A1A1A"/>
<path d="M376 432.5C393.397 432.5 407.5 446.603 407.5 464C407.5 481.397 393.397 495.5 376 495.5C358.603 495.5 344.5 481.397 344.5 464C344.5 446.603 358.603 432.5 376 432.5Z" stroke="#333333"/>
<path d="M370 464C370 460.686 372.686 458 376 458C379.314 458 382 460.686 382 464C382 467.314 379.314 470 376 470C372.686 470 370 467.314 370 464Z" fill="#404040"/>
</g>
<g opacity="0.35">
<path d="M472 432.5C489.397 432.5 503.5 446.603 503.5 464C503.5 481.397 489.397 495.5 472 495.5C454.603 495.5 440.5 481.397 440.5 464C440.5 446.603 454.603 432.5 472 432.5Z" fill="#1A1A1A"/>
<path d="M472 432.5C489.397 432.5 503.5 446.603 503.5 464C503.5 481.397 489.397 495.5 472 495.5C454.603 495.5 440.5 481.397 440.5 464C440.5 446.603 454.603 432.5 472 432.5Z" stroke="#333333"/>
<path d="M466 464C466 460.686 468.686 458 472 458C475.314 458 478 460.686 478 464C478 467.314 475.314 470 472 470C468.686 470 466 467.314 466 464Z" fill="#404040"/>
</g>
<g opacity="0.5">
<path d="M568 432.5C585.397 432.5 599.5 446.603 599.5 464C599.5 481.397 585.397 495.5 568 495.5C550.603 495.5 536.5 481.397 536.5 464C536.5 446.603 550.603 432.5 568 432.5Z" fill="#1A1A1A"/>
<path d="M568 432.5C585.397 432.5 599.5 446.603 599.5 464C599.5 481.397 585.397 495.5 568 495.5C550.603 495.5 536.5 481.397 536.5 464C536.5 446.603 550.603 432.5 568 432.5Z" stroke="#333333"/>
<path d="M562 464C562 460.686 564.686 458 568 458C571.314 458 574 460.686 574 464C574 467.314 571.314 470 568 470C564.686 470 562 467.314 562 464Z" fill="#404040"/>
</g>
<g opacity="0.4">
<path d="M664 432.5C681.397 432.5 695.5 446.603 695.5 464C695.5 481.397 681.397 495.5 664 495.5C646.603 495.5 632.5 481.397 632.5 464C632.5 446.603 646.603 432.5 664 432.5Z" fill="#1A1A1A"/>
<path d="M664 432.5C681.397 432.5 695.5 446.603 695.5 464C695.5 481.397 681.397 495.5 664 495.5C646.603 495.5 632.5 481.397 632.5 464C632.5 446.603 646.603 432.5 664 432.5Z" stroke="#333333"/>
<path d="M658 464C658 460.686 660.686 458 664 458C667.314 458 670 460.686 670 464C670 467.314 667.314 470 664 470C660.686 470 658 467.314 658 464Z" fill="#404040"/>
</g>
<g opacity="0.3">
<path d="M760 432.5C777.397 432.5 791.5 446.603 791.5 464C791.5 481.397 777.397 495.5 760 495.5C742.603 495.5 728.5 481.397 728.5 464C728.5 446.603 742.603 432.5 760 432.5Z" fill="#1A1A1A"/>
<path d="M760 432.5C777.397 432.5 791.5 446.603 791.5 464C791.5 481.397 777.397 495.5 760 495.5C742.603 495.5 728.5 481.397 728.5 464C728.5 446.603 742.603 432.5 760 432.5Z" stroke="#333333"/>
<path d="M754 464C754 460.686 756.686 458 760 458C763.314 458 766 460.686 766 464C766 467.314 763.314 470 760 470C756.686 470 754 467.314 754 464Z" fill="#404040"/>
</g>
<g opacity="0.4">
<path d="M856 432.5C873.397 432.5 887.5 446.603 887.5 464C887.5 481.397 873.397 495.5 856 495.5C838.603 495.5 824.5 481.397 824.5 464C824.5 446.603 838.603 432.5 856 432.5Z" fill="#1A1A1A"/>
<path d="M856 432.5C873.397 432.5 887.5 446.603 887.5 464C887.5 481.397 873.397 495.5 856 495.5C838.603 495.5 824.5 481.397 824.5 464C824.5 446.603 838.603 432.5 856 432.5Z" stroke="#333333"/>
<path d="M850 464C850 460.686 852.686 458 856 458C859.314 458 862 460.686 862 464C862 467.314 859.314 470 856 470C852.686 470 850 467.314 850 464Z" fill="#404040"/>
</g>
<g opacity="0.15">
<path opacity="0.6" d="M520 320L420 220M520 320L620 220M520 320L420 420M520 320L620 420" stroke="white"/>
<path opacity="0.3" d="M520 320L320 220M520 320L720 220M520 320L320 420M520 320L720 420" stroke="white" stroke-width="0.5"/>
</g>
<defs>
<filter id="filter0_d_578_3008" x="384" y="168" width="176" height="176" filterUnits="userSpaceOnUse" color-interpolation-filters="sRGB">
<feFlood flood-opacity="0" result="BackgroundImageFix"/>
<feColorMatrix in="SourceAlpha" type="matrix" values="0 0 0 0 0 0 0 0 0 0 0 0 0 0 0 0 0 0 127 0" result="hardAlpha"/>
<feOffset/>
<feGaussianBlur stdDeviation="20"/>
<feComposite in2="hardAlpha" operator="out"/>
<feColorMatrix type="matrix" values="0 0 0 0 1 0 0 0 0 1 0 0 0 0 1 0 0 0 0.25098 0"/>
<feBlend mode="normal" in2="BackgroundImageFix" result="effect1_dropShadow_578_3008"/>
<feBlend mode="normal" in="SourceGraphic" in2="effect1_dropShadow_578_3008" result="shape"/>
</filter>
<filter id="filter1_d_578_3008" x="440" y="224" width="64" height="64" filterUnits="userSpaceOnUse" color-interpolation-filters="sRGB">
<feFlood flood-opacity="0" result="BackgroundImageFix"/>
<feColorMatrix in="SourceAlpha" type="matrix" values="0 0 0 0 0 0 0 0 0 0 0 0 0 0 0 0 0 0 127 0" result="hardAlpha"/>
<feOffset/>
<feGaussianBlur stdDeviation="10"/>
<feComposite in2="hardAlpha" operator="out"/>
<feColorMatrix type="matrix" values="0 0 0 0 1 0 0 0 0 1 0 0 0 0 1 0 0 0 0.376471 0"/>
<feBlend mode="normal" in2="BackgroundImageFix" result="effect1_dropShadow_578_3008"/>
<feBlend mode="normal" in="SourceGraphic" in2="effect1_dropShadow_578_3008" result="shape"/>
</filter>
<linearGradient id="paint0_linear_578_3008" x1="432" y1="256" x2="512" y2="256" gradientUnits="userSpaceOnUse">
<stop stop-color="#1A1A1A"/>
<stop offset="1" stop-color="#333333"/>
</linearGradient>
</defs>
</svg>
