<svg width="145" height="35" viewBox="0 0 145 35" fill="none" xmlns="http://www.w3.org/2000/svg">
<g clip-path="url(#clip0_299_2730)">
<path d="M49.1548 14.6378C49.098 14.0649 48.8542 13.6198 48.4233 13.3026C47.9924 12.9853 47.4077 12.8267 46.669 12.8267C46.1671 12.8267 45.7434 12.8977 45.3977 13.0398C45.0521 13.1771 44.7869 13.3688 44.6023 13.6151C44.4223 13.8613 44.3324 14.1406 44.3324 14.4531C44.3229 14.7135 44.3774 14.9408 44.4957 15.1349C44.6188 15.3291 44.7869 15.4972 45 15.6392C45.2131 15.7765 45.4593 15.8973 45.7386 16.0014C46.018 16.1009 46.3163 16.1861 46.6335 16.2571L47.9403 16.5696C48.5748 16.7116 49.1572 16.901 49.6875 17.1378C50.2178 17.3745 50.6771 17.6657 51.0653 18.0114C51.4536 18.357 51.7543 18.7642 51.9673 19.233C52.1851 19.7017 52.2964 20.2391 52.3011 20.8452C52.2964 21.7353 52.0691 22.5071 51.6193 23.1605C51.1742 23.8092 50.5303 24.3134 49.6875 24.6733C48.8494 25.0284 47.8385 25.206 46.6548 25.206C45.4806 25.206 44.4579 25.026 43.5866 24.6662C42.7202 24.3063 42.0431 23.7737 41.5554 23.0682C41.0724 22.358 40.8191 21.4796 40.7955 20.4332H43.7713C43.8045 20.9209 43.9441 21.3281 44.1903 21.6548C44.4413 21.9768 44.7751 22.2206 45.1918 22.3864C45.6132 22.5473 46.089 22.6278 46.6193 22.6278C47.1402 22.6278 47.5923 22.5521 47.9759 22.4006C48.3641 22.2491 48.6648 22.0384 48.8778 21.7685C49.0909 21.4986 49.1974 21.1884 49.1974 20.8381C49.1974 20.5114 49.1004 20.2367 48.9062 20.0142C48.7169 19.7917 48.4375 19.6023 48.0682 19.446C47.7036 19.2898 47.2562 19.1477 46.7259 19.0199L45.142 18.6222C43.9157 18.3239 42.9474 17.8575 42.2372 17.223C41.527 16.5885 41.1742 15.7339 41.179 14.6591C41.1742 13.7784 41.4086 13.009 41.8821 12.3509C42.3603 11.6927 43.0161 11.179 43.8494 10.8097C44.6828 10.4403 45.6297 10.2557 46.6903 10.2557C47.7699 10.2557 48.7121 10.4403 49.517 10.8097C50.3267 11.179 50.9564 11.6927 51.4062 12.3509C51.8561 13.009 52.0881 13.7713 52.1023 14.6378H49.1548ZM54.3129 29.0909V14.0909H57.2958V15.9233H57.4308C57.5633 15.6297 57.7551 15.3314 58.006 15.0284C58.2617 14.7206 58.5932 14.465 59.0004 14.2614C59.4123 14.053 59.9237 13.9489 60.5344 13.9489C61.3299 13.9489 62.0638 14.1572 62.7362 14.5739C63.4085 14.9858 63.9459 15.6084 64.3484 16.4418C64.7508 17.2704 64.9521 18.3097 64.9521 19.5597C64.9521 20.7765 64.7556 21.804 64.3626 22.642C63.9743 23.4754 63.444 24.1075 62.7717 24.5384C62.104 24.9645 61.3559 25.1776 60.5273 25.1776C59.9402 25.1776 59.4407 25.0805 59.0288 24.8864C58.6216 24.6922 58.2878 24.4484 58.0273 24.1548C57.7669 23.8565 57.5681 23.5559 57.4308 23.2528H57.3384V29.0909H54.3129ZM57.2745 19.5455C57.2745 20.1941 57.3645 20.7599 57.5444 21.2429C57.7243 21.7259 57.9847 22.1023 58.3256 22.3722C58.6665 22.6373 59.0808 22.7699 59.5685 22.7699C60.061 22.7699 60.4776 22.6349 60.8185 22.3651C61.1594 22.0904 61.4175 21.7116 61.5927 21.2287C61.7726 20.741 61.8626 20.1799 61.8626 19.5455C61.8626 18.9157 61.775 18.3617 61.5998 17.8835C61.4246 17.4053 61.1665 17.0312 60.8256 16.7614C60.4847 16.4915 60.0657 16.3565 59.5685 16.3565C59.0761 16.3565 58.6594 16.4867 58.3185 16.7472C57.9824 17.0076 57.7243 17.3769 57.5444 17.8551C57.3645 18.3333 57.2745 18.8968 57.2745 19.5455ZM71.8981 25.2131C70.7949 25.2131 69.8408 24.9787 69.0359 24.5099C68.2357 24.0365 67.6178 23.3783 67.1822 22.5355C66.7466 21.688 66.5288 20.7055 66.5288 19.5881C66.5288 18.4612 66.7466 17.4763 67.1822 16.6335C67.6178 15.786 68.2357 15.1278 69.0359 14.6591C69.8408 14.1856 70.7949 13.9489 71.8981 13.9489C73.0013 13.9489 73.953 14.1856 74.7532 14.6591C75.5581 15.1278 76.1784 15.786 76.614 16.6335C77.0496 17.4763 77.2674 18.4612 77.2674 19.5881C77.2674 20.7055 77.0496 21.688 76.614 22.5355C76.1784 23.3783 75.5581 24.0365 74.7532 24.5099C73.953 24.9787 73.0013 25.2131 71.8981 25.2131ZM71.9123 22.8693C72.4142 22.8693 72.8332 22.7273 73.1694 22.4432C73.5056 22.1544 73.7589 21.7614 73.9293 21.2642C74.1045 20.767 74.1921 20.2012 74.1921 19.5668C74.1921 18.9323 74.1045 18.3665 73.9293 17.8693C73.7589 17.3722 73.5056 16.9792 73.1694 16.6903C72.8332 16.4015 72.4142 16.2571 71.9123 16.2571C71.4057 16.2571 70.9795 16.4015 70.6339 16.6903C70.293 16.9792 70.0349 17.3722 69.8597 17.8693C69.6893 18.3665 69.604 18.9323 69.604 19.5668C69.604 20.2012 69.6893 20.767 69.8597 21.2642C70.0349 21.7614 70.293 22.1544 70.6339 22.4432C70.9795 22.7273 71.4057 22.8693 71.9123 22.8693ZM85.0373 14.0909V16.3636H78.4677V14.0909H85.0373ZM79.9592 11.4773H82.9847V21.6477C82.9847 21.9271 83.0273 22.1449 83.1126 22.3011C83.1978 22.4527 83.3162 22.5592 83.4677 22.6207C83.6239 22.6823 83.8039 22.7131 84.0075 22.7131C84.1495 22.7131 84.2915 22.7012 84.4336 22.6776C84.5756 22.6491 84.6845 22.6278 84.7603 22.6136L85.2362 24.8651C85.0846 24.9124 84.8716 24.9669 84.5969 25.0284C84.3223 25.0947 83.9885 25.1349 83.5955 25.1491C82.8664 25.1776 82.2272 25.0805 81.6779 24.858C81.1334 24.6354 80.7096 24.2898 80.4066 23.821C80.1036 23.3523 79.9544 22.7604 79.9592 22.0455V11.4773ZM92.8107 14.0909V16.3636H86.2411V14.0909H92.8107ZM87.7326 11.4773H90.7582V21.6477C90.7582 21.9271 90.8008 22.1449 90.886 22.3011C90.9712 22.4527 91.0896 22.5592 91.2411 22.6207C91.3974 22.6823 91.5773 22.7131 91.7809 22.7131C91.9229 22.7131 92.065 22.7012 92.207 22.6776C92.3491 22.6491 92.458 22.6278 92.5337 22.6136L93.0096 24.8651C92.8581 24.9124 92.645 24.9669 92.3704 25.0284C92.0958 25.0947 91.762 25.1349 91.369 25.1491C90.6398 25.1776 90.0006 25.0805 89.4513 24.858C88.9068 24.6354 88.4831 24.2898 88.18 23.821C87.877 23.3523 87.7279 22.7604 87.7326 22.0455V11.4773ZM99.636 25.2131C98.5138 25.2131 97.5479 24.9858 96.7383 24.5312C95.9334 24.072 95.3131 23.4233 94.8775 22.5852C94.4419 21.7424 94.2241 20.7457 94.2241 19.5952C94.2241 18.473 94.4419 17.4882 94.8775 16.6406C95.3131 15.7931 95.9263 15.1326 96.717 14.6591C97.5124 14.1856 98.4452 13.9489 99.5153 13.9489C100.235 13.9489 100.905 14.0649 101.525 14.2969C102.15 14.5241 102.695 14.8674 103.159 15.3267C103.627 15.786 103.992 16.3636 104.252 17.0597C104.513 17.7509 104.643 18.5606 104.643 19.4886V20.3196H95.4315V18.4446H101.795C101.795 18.009 101.7 17.6231 101.511 17.2869C101.322 16.9508 101.059 16.688 100.723 16.4986C100.391 16.3045 100.005 16.2074 99.565 16.2074C99.1057 16.2074 98.6985 16.3139 98.3434 16.527C97.993 16.7353 97.7184 17.017 97.5195 17.3722C97.3207 17.7225 97.2189 18.1132 97.2141 18.544V20.3267C97.2141 20.8665 97.3136 21.3329 97.5124 21.7259C97.716 22.1188 98.0025 22.4219 98.3718 22.6349C98.7411 22.848 99.1791 22.9545 99.6857 22.9545C100.022 22.9545 100.33 22.9072 100.609 22.8125C100.888 22.7178 101.127 22.5758 101.326 22.3864C101.525 22.197 101.677 21.965 101.781 21.6903L104.579 21.875C104.437 22.5473 104.146 23.1345 103.706 23.6364C103.27 24.1335 102.707 24.5218 102.015 24.8011C101.329 25.0758 100.536 25.2131 99.636 25.2131ZM110.637 25.1776C109.809 25.1776 109.058 24.9645 108.386 24.5384C107.718 24.1075 107.188 23.4754 106.795 22.642C106.407 21.804 106.213 20.7765 106.213 19.5597C106.213 18.3097 106.414 17.2704 106.816 16.4418C107.219 15.6084 107.754 14.9858 108.422 14.5739C109.094 14.1572 109.83 13.9489 110.63 13.9489C111.241 13.9489 111.75 14.053 112.157 14.2614C112.569 14.465 112.901 14.7206 113.152 15.0284C113.407 15.3314 113.601 15.6297 113.734 15.9233H113.826V10.4545H116.845V25H113.862V23.2528H113.734C113.592 23.5559 113.391 23.8565 113.13 24.1548C112.875 24.4484 112.541 24.6922 112.129 24.8864C111.722 25.0805 111.225 25.1776 110.637 25.1776ZM111.596 22.7699C112.084 22.7699 112.496 22.6373 112.832 22.3722C113.173 22.1023 113.433 21.7259 113.613 21.2429C113.798 20.7599 113.89 20.1941 113.89 19.5455C113.89 18.8968 113.8 18.3333 113.62 17.8551C113.44 17.3769 113.18 17.0076 112.839 16.7472C112.498 16.4867 112.084 16.3565 111.596 16.3565C111.099 16.3565 110.68 16.4915 110.339 16.7614C109.998 17.0312 109.74 17.4053 109.565 17.8835C109.39 18.3617 109.302 18.9157 109.302 19.5455C109.302 20.1799 109.39 20.741 109.565 21.2287C109.745 21.7116 110.003 22.0904 110.339 22.3651C110.68 22.6349 111.099 22.7699 111.596 22.7699ZM126.525 25H123.23L128.251 10.4545H132.214L137.228 25H133.933L130.289 13.7784H130.176L126.525 25ZM126.319 19.2827H134.103V21.6832H126.319V19.2827ZM142.054 10.4545V25H138.979V10.4545H142.054Z" fill="black"/>
<rect y="1" width="32" height="32" rx="8" fill="#2D2D2D"/>
<g clip-path="url(#clip1_299_2730)">
<path d="M16 22C18.7614 22 21 19.7614 21 17C21 14.2386 18.7614 12 16 12C13.2386 12 11 14.2386 11 17C11 19.7614 13.2386 22 16 22Z" fill="white"/>
<path d="M16 8.6665V11.9998V8.6665Z" fill="black"/>
<path d="M16 8.6665V11.9998" stroke="white" stroke-width="3" stroke-linecap="round"/>
<path d="M16 22V25.3333V22Z" fill="black"/>
<path d="M16 22V25.3333" stroke="white" stroke-width="3" stroke-linecap="round"/>
<path d="M7.6665 17H10.9998H7.6665Z" fill="black"/>
<path d="M7.6665 17H10.9998" stroke="white" stroke-width="3" stroke-linecap="round"/>
<path d="M21 17H24.3333H21Z" fill="black"/>
<path d="M21 17H24.3333" stroke="white" stroke-width="3" stroke-linecap="round"/>
<path d="M10.1665 11.1665L12.6665 13.6665L10.1665 11.1665Z" fill="black"/>
<path d="M10.1665 11.1665L12.6665 13.6665" stroke="white" stroke-width="3" stroke-linecap="round"/>
<path d="M19.3335 20.3335L21.8335 22.8335L19.3335 20.3335Z" fill="black"/>
<path d="M19.3335 20.3335L21.8335 22.8335" stroke="white" stroke-width="3" stroke-linecap="round"/>
<path d="M10.1665 22.8335L12.6665 20.3335L10.1665 22.8335Z" fill="black"/>
<path d="M10.1665 22.8335L12.6665 20.3335" stroke="white" stroke-width="3" stroke-linecap="round"/>
<path d="M19.3335 13.6665L21.8335 11.1665L19.3335 13.6665Z" fill="black"/>
<path d="M19.3335 13.6665L21.8335 11.1665" stroke="white" stroke-width="3" stroke-linecap="round"/>
</g>
</g>
<defs>
<clipPath id="clip0_299_2730">
<rect width="145" height="35" fill="white"/>
</clipPath>
<clipPath id="clip1_299_2730">
<rect width="20" height="20" fill="white" transform="translate(6 7)"/>
</clipPath>
</defs>
</svg>
