<svg width="97" height="24" viewBox="0 0 97 24" fill="none" xmlns="http://www.w3.org/2000/svg">
<path d="M12 2L14 10L22 12L14 14L12 22L10 14L2 12L10 10L12 2Z" fill="#9CA3AF"/>
<path d="M35.1648 19V17.3594L42.6222 6.66335H35.1222V4.45455H45.8892V6.09517L38.4389 16.7912H45.9318V19H35.1648ZM51.5071 19.2202C50.8158 19.2202 50.1932 19.0971 49.6392 18.8509C49.09 18.5999 48.6544 18.2306 48.3324 17.7429C48.0152 17.2552 47.8565 16.6539 47.8565 15.9389C47.8565 15.3234 47.9702 14.8144 48.1974 14.4119C48.4247 14.0095 48.7348 13.6875 49.1278 13.446C49.5208 13.2045 49.9635 13.0223 50.456 12.8991C50.9531 12.7713 51.4669 12.679 51.9972 12.6222C52.6364 12.5559 53.1548 12.4967 53.5526 12.4446C53.9503 12.3878 54.2391 12.3026 54.419 12.1889C54.6037 12.0705 54.696 11.8883 54.696 11.642V11.5994C54.696 11.0644 54.5374 10.6501 54.2202 10.3565C53.9029 10.063 53.446 9.91619 52.8494 9.91619C52.2197 9.91619 51.7202 10.0535 51.3509 10.3281C50.9863 10.6027 50.7401 10.9271 50.6122 11.3011L48.2116 10.9602C48.401 10.2973 48.7135 9.74337 49.1491 9.2983C49.5848 8.84848 50.1174 8.51231 50.7472 8.28977C51.3769 8.0625 52.0729 7.94886 52.8352 7.94886C53.3608 7.94886 53.884 8.01042 54.4048 8.13352C54.9257 8.25663 55.4015 8.46023 55.8324 8.74432C56.2633 9.02367 56.6089 9.40483 56.8693 9.88778C57.1345 10.3707 57.267 10.9744 57.267 11.6989V19H54.7955V17.5014H54.7102C54.554 17.8045 54.3338 18.0885 54.0497 18.3537C53.7704 18.6141 53.4176 18.8248 52.9915 18.9858C52.5701 19.142 52.0753 19.2202 51.5071 19.2202ZM52.1747 17.331C52.6908 17.331 53.1383 17.2292 53.517 17.0256C53.8958 16.8172 54.187 16.5426 54.3906 16.2017C54.599 15.8608 54.7031 15.4891 54.7031 15.0866V13.8011C54.6226 13.8674 54.4853 13.929 54.2912 13.9858C54.1018 14.0426 53.8887 14.0923 53.652 14.1349C53.4152 14.1776 53.1809 14.2154 52.9489 14.2486C52.7169 14.2817 52.5156 14.3101 52.3452 14.3338C51.9616 14.3859 51.6184 14.4711 51.3153 14.5895C51.0123 14.7079 50.7732 14.8736 50.598 15.0866C50.4228 15.295 50.3352 15.5649 50.3352 15.8963C50.3352 16.3698 50.508 16.7273 50.8537 16.9688C51.1993 17.2102 51.6397 17.331 52.1747 17.331ZM59.8523 23.0909V8.09091H62.3807V9.89489H62.5298C62.6624 9.62973 62.8494 9.34801 63.0909 9.04972C63.3324 8.74669 63.6591 8.48864 64.071 8.27557C64.483 8.05777 65.0085 7.94886 65.6477 7.94886C66.4905 7.94886 67.2505 8.1643 67.9276 8.59517C68.6094 9.02131 69.1491 9.65341 69.5469 10.4915C69.9493 11.3248 70.1506 12.3475 70.1506 13.5597C70.1506 14.7576 69.9541 15.7756 69.5611 16.6136C69.1681 17.4517 68.633 18.0909 67.956 18.5312C67.2789 18.9716 66.5118 19.1918 65.6548 19.1918C65.0298 19.1918 64.5114 19.0876 64.0994 18.8793C63.6875 18.6709 63.3561 18.42 63.1051 18.1264C62.8589 17.8281 62.6671 17.5464 62.5298 17.2812H62.4233V23.0909H59.8523ZM62.3736 13.5455C62.3736 14.2509 62.473 14.8688 62.6719 15.3991C62.8755 15.9295 63.1667 16.3437 63.5455 16.642C63.929 16.9356 64.393 17.0824 64.9375 17.0824C65.5057 17.0824 65.9815 16.9309 66.3651 16.6278C66.7486 16.3201 67.0374 15.901 67.2315 15.3707C67.4304 14.8357 67.5298 14.2273 67.5298 13.5455C67.5298 12.8684 67.4328 12.267 67.2386 11.7415C67.0445 11.2159 66.7557 10.804 66.3722 10.5057C65.9886 10.2074 65.5104 10.0582 64.9375 10.0582C64.3883 10.0582 63.9219 10.2027 63.5384 10.4915C63.1548 10.7803 62.8636 11.1851 62.6648 11.706C62.4706 12.2268 62.3736 12.84 62.3736 13.5455ZM72.3523 19V8.09091H74.9233V19H72.3523ZM73.6449 6.54261C73.2377 6.54261 72.8873 6.40767 72.5938 6.13778C72.3002 5.86316 72.1534 5.53409 72.1534 5.15057C72.1534 4.76231 72.3002 4.43324 72.5938 4.16335C72.8873 3.88873 73.2377 3.75142 73.6449 3.75142C74.0568 3.75142 74.4072 3.88873 74.696 4.16335C74.9896 4.43324 75.1364 4.76231 75.1364 5.15057C75.1364 5.53409 74.9896 5.86316 74.696 6.13778C74.4072 6.40767 74.0568 6.54261 73.6449 6.54261ZM82.3967 19.2131C81.3029 19.2131 80.3583 18.9858 79.5629 18.5312C78.7721 18.072 78.1637 17.4233 77.7376 16.5852C77.3114 15.7424 77.0984 14.7505 77.0984 13.6094C77.0984 12.4872 77.3114 11.5024 77.7376 10.6548C78.1684 9.80256 78.7698 9.13968 79.5415 8.66619C80.3133 8.18797 81.2201 7.94886 82.2617 7.94886C82.9341 7.94886 83.5685 8.05777 84.1651 8.27557C84.7665 8.48864 85.2968 8.82008 85.756 9.26989C86.2201 9.7197 86.5846 10.2926 86.8498 10.9886C87.1149 11.6799 87.2475 12.5038 87.2475 13.4602V14.2486H78.3058V12.5156H84.783C84.7783 12.0232 84.6718 11.5852 84.4634 11.2017C84.2551 10.8134 83.9639 10.508 83.5898 10.2855C83.2205 10.063 82.7897 9.9517 82.2972 9.9517C81.7717 9.9517 81.31 10.0795 80.9123 10.3352C80.5146 10.5862 80.2044 10.9176 79.9819 11.3295C79.7641 11.7367 79.6528 12.1842 79.6481 12.6719V14.1847C79.6481 14.8191 79.7641 15.3636 79.9961 15.8182C80.2281 16.268 80.5524 16.6136 80.9691 16.8551C81.3858 17.0919 81.8735 17.2102 82.4322 17.2102C82.8062 17.2102 83.1448 17.1581 83.4478 17.054C83.7508 16.9451 84.0136 16.7865 84.2362 16.5781C84.4587 16.3698 84.6268 16.1117 84.7404 15.804L87.141 16.0739C86.9895 16.7083 86.7006 17.2623 86.2745 17.7358C85.8531 18.2045 85.3133 18.5691 84.6552 18.8295C83.997 19.0852 83.2442 19.2131 82.3967 19.2131ZM89.4226 19V8.09091H91.9155V9.90909H92.0291C92.228 9.27936 92.5689 8.79403 93.0518 8.45312C93.5395 8.10748 94.0959 7.93466 94.7209 7.93466C94.8629 7.93466 95.0215 7.94176 95.1967 7.95597C95.3767 7.96544 95.5258 7.98201 95.6442 8.00568V10.3707C95.5353 10.3329 95.3625 10.2997 95.1257 10.2713C94.8937 10.2382 94.6688 10.2216 94.451 10.2216C93.9822 10.2216 93.5608 10.3234 93.1868 10.527C92.8175 10.7259 92.5263 11.0028 92.3132 11.358C92.1001 11.7131 91.9936 12.1226 91.9936 12.5866V19H89.4226Z" fill="#9CA3AF"/>
</svg>
