<svg width="121" height="24" viewBox="0 0 121 24" fill="none" xmlns="http://www.w3.org/2000/svg">
<path d="M18 6H6C4.89543 6 4 6.89543 4 8V16C4 17.1046 4.89543 18 6 18H18C19.1046 18 20 17.1046 20 16V8C20 6.89543 19.1046 6 18 6Z" fill="#9CA3AF"/>
<path d="M4 8L12 13L20 8" stroke="white" stroke-width="2" stroke-linecap="round"/>
<path d="M38.0696 4.45455V19H35.4347V4.45455H38.0696ZM43.3803 12.608V19H40.8093V8.09091H43.2667V9.9446H43.3945C43.6455 9.33381 44.0456 8.84848 44.5948 8.48864C45.1488 8.12879 45.833 7.94886 46.6474 7.94886C47.4002 7.94886 48.056 8.10985 48.6147 8.43182C49.1781 8.75379 49.6138 9.22017 49.9215 9.83097C50.234 10.4418 50.3879 11.1828 50.3832 12.054V19H47.8121V12.4517C47.8121 11.7225 47.6228 11.152 47.244 10.7401C46.8699 10.3281 46.3514 10.1222 45.6886 10.1222C45.2388 10.1222 44.8387 10.2216 44.4883 10.4205C44.1426 10.6146 43.8704 10.8963 43.6715 11.2656C43.4774 11.6349 43.3803 12.0824 43.3803 12.608ZM58.4442 8.09091V10.0795H52.1729V8.09091H58.4442ZM53.7212 5.47727H56.2923V15.7188C56.2923 16.0644 56.3443 16.3295 56.4485 16.5142C56.5574 16.6941 56.6995 16.8172 56.8746 16.8835C57.0498 16.9498 57.244 16.983 57.457 16.983C57.618 16.983 57.7648 16.9711 57.8974 16.9474C58.0347 16.9238 58.1388 16.9025 58.2099 16.8835L58.6431 18.8935C58.5058 18.9408 58.3093 18.9929 58.0536 19.0497C57.8027 19.1065 57.4949 19.1397 57.1303 19.1491C56.4864 19.1681 55.9064 19.071 55.3903 18.858C54.8742 18.6402 54.4646 18.304 54.1616 17.8494C53.8633 17.3949 53.7165 16.8267 53.7212 16.1449V5.47727ZM65.3068 19.2131C64.2131 19.2131 63.2685 18.9858 62.473 18.5312C61.6823 18.072 61.0739 17.4233 60.6477 16.5852C60.2216 15.7424 60.0085 14.7505 60.0085 13.6094C60.0085 12.4872 60.2216 11.5024 60.6477 10.6548C61.0786 9.80256 61.6799 9.13968 62.4517 8.66619C63.2235 8.18797 64.1302 7.94886 65.1719 7.94886C65.8442 7.94886 66.4787 8.05777 67.0753 8.27557C67.6766 8.48864 68.2069 8.82008 68.6662 9.26989C69.1302 9.7197 69.4948 10.2926 69.7599 10.9886C70.0251 11.6799 70.1577 12.5038 70.1577 13.4602V14.2486H61.2159V12.5156H67.6932C67.6884 12.0232 67.5819 11.5852 67.3736 11.2017C67.1652 10.8134 66.8741 10.508 66.5 10.2855C66.1307 10.063 65.6998 9.9517 65.2074 9.9517C64.6818 9.9517 64.2202 10.0795 63.8224 10.3352C63.4247 10.5862 63.1146 10.9176 62.892 11.3295C62.6742 11.7367 62.563 12.1842 62.5582 12.6719V14.1847C62.5582 14.8191 62.6742 15.3636 62.9062 15.8182C63.1383 16.268 63.4626 16.6136 63.8793 16.8551C64.2959 17.0919 64.7836 17.2102 65.3423 17.2102C65.7164 17.2102 66.0549 17.1581 66.358 17.054C66.661 16.9451 66.9238 16.7865 67.1463 16.5781C67.3688 16.3698 67.5369 16.1117 67.6506 15.804L70.0511 16.0739C69.8996 16.7083 69.6108 17.2623 69.1847 17.7358C68.7633 18.2045 68.2235 18.5691 67.5653 18.8295C66.9072 19.0852 66.1544 19.2131 65.3068 19.2131ZM72.3327 19V8.09091H74.8256V9.90909H74.9393C75.1381 9.27936 75.479 8.79403 75.962 8.45312C76.4497 8.10748 77.006 7.93466 77.631 7.93466C77.7731 7.93466 77.9317 7.94176 78.1069 7.95597C78.2868 7.96544 78.436 7.98201 78.5543 8.00568V10.3707C78.4454 10.3329 78.2726 10.2997 78.0359 10.2713C77.8039 10.2382 77.579 10.2216 77.3612 10.2216C76.8924 10.2216 76.471 10.3234 76.0969 10.527C75.7276 10.7259 75.4364 11.0028 75.2234 11.358C75.0103 11.7131 74.9038 12.1226 74.9038 12.5866V19H72.3327ZM84.5717 19.2131C83.4827 19.2131 82.5476 18.974 81.7663 18.4957C80.9898 18.0175 80.3909 17.357 79.9695 16.5142C79.5528 15.6667 79.3445 14.6913 79.3445 13.5881C79.3445 12.4801 79.5575 11.5024 79.9837 10.6548C80.4098 9.80256 81.0111 9.13968 81.7876 8.66619C82.5689 8.18797 83.4922 7.94886 84.5575 7.94886C85.4429 7.94886 86.2266 8.11222 86.9084 8.43892C87.5949 8.76089 88.1418 9.2178 88.549 9.80966C88.9562 10.3968 89.1882 11.0833 89.245 11.8693H86.7876C86.6882 11.3437 86.4515 10.9058 86.0774 10.5554C85.7081 10.2003 85.2133 10.0227 84.593 10.0227C84.0675 10.0227 83.6058 10.1648 83.2081 10.4489C82.8104 10.7282 82.5002 11.1307 82.2777 11.6562C82.0599 12.1818 81.951 12.8116 81.951 13.5455C81.951 14.2888 82.0599 14.928 82.2777 15.4631C82.4955 15.9934 82.8009 16.4029 83.1939 16.6918C83.5916 16.9759 84.058 17.1179 84.593 17.1179C84.9718 17.1179 85.3104 17.0469 85.6087 16.9048C85.9117 16.758 86.165 16.5473 86.3686 16.2727C86.5722 15.9981 86.7119 15.6643 86.7876 15.2713H89.245C89.1835 16.0431 88.9562 16.7273 88.5632 17.3239C88.1702 17.9157 87.6352 18.3797 86.9581 18.7159C86.281 19.0473 85.4856 19.2131 84.5717 19.2131ZM96.1147 19.2131C95.0494 19.2131 94.1261 18.9787 93.3448 18.5099C92.5636 18.0412 91.9575 17.3854 91.5266 16.5426C91.1005 15.6998 90.8874 14.715 90.8874 13.5881C90.8874 12.4612 91.1005 11.474 91.5266 10.6264C91.9575 9.77888 92.5636 9.12074 93.3448 8.65199C94.1261 8.18324 95.0494 7.94886 96.1147 7.94886C97.18 7.94886 98.1033 8.18324 98.8846 8.65199C99.6658 9.12074 100.27 9.77888 100.696 10.6264C101.127 11.474 101.342 12.4612 101.342 13.5881C101.342 14.715 101.127 15.6998 100.696 16.5426C100.27 17.3854 99.6658 18.0412 98.8846 18.5099C98.1033 18.9787 97.18 19.2131 96.1147 19.2131ZM96.1289 17.1534C96.7066 17.1534 97.1895 16.9948 97.5778 16.6776C97.966 16.3556 98.2549 15.9247 98.4442 15.3849C98.6384 14.8452 98.7354 14.2438 98.7354 13.581C98.7354 12.9134 98.6384 12.3097 98.4442 11.7699C98.2549 11.2254 97.966 10.7921 97.5778 10.4702C97.1895 10.1482 96.7066 9.98722 96.1289 9.98722C95.5371 9.98722 95.0446 10.1482 94.6516 10.4702C94.2634 10.7921 93.9722 11.2254 93.7781 11.7699C93.5887 12.3097 93.494 12.9134 93.494 13.581C93.494 14.2438 93.5887 14.8452 93.7781 15.3849C93.9722 15.9247 94.2634 16.3556 94.6516 16.6776C95.0446 16.9948 95.5371 17.1534 96.1289 17.1534ZM103.524 19V8.09091H105.982V9.9446H106.109C106.337 9.3196 106.713 8.83191 107.239 8.48153C107.764 8.12642 108.392 7.94886 109.121 7.94886C109.859 7.94886 110.482 8.12879 110.989 8.48864C111.5 8.84375 111.86 9.32907 112.068 9.9446H112.182C112.423 9.33854 112.83 8.85559 113.403 8.49574C113.981 8.13116 114.665 7.94886 115.456 7.94886C116.46 7.94886 117.279 8.2661 117.913 8.90057C118.548 9.53504 118.865 10.4607 118.865 11.6776V19H116.287V12.0753C116.287 11.3982 116.107 10.9034 115.747 10.5909C115.387 10.2737 114.947 10.1151 114.426 10.1151C113.806 10.1151 113.321 10.3092 112.97 10.6974C112.625 11.081 112.452 11.5805 112.452 12.196V19H109.93V11.9688C109.93 11.4053 109.76 10.9555 109.419 10.6193C109.083 10.2831 108.643 10.1151 108.098 10.1151C107.729 10.1151 107.393 10.2098 107.089 10.3991C106.786 10.5838 106.545 10.8466 106.365 11.1875C106.185 11.5237 106.095 11.9167 106.095 12.3665V19H103.524Z" fill="#9CA3AF"/>
</svg>
