<svg width="112" height="24" viewBox="0 0 112 24" fill="none" xmlns="http://www.w3.org/2000/svg">
<path d="M12 2L22 8V16L12 22L2 16V8L12 2Z" fill="#9CA3AF"/>
<path opacity="0.3" d="M12 12L2 8L12 2L22 8L12 12Z" fill="white"/>
<path d="M37.3026 19H34.4901L39.6108 4.45455H42.8636L47.9915 19H45.179L41.294 7.4375H41.1804L37.3026 19ZM37.3949 13.2969H45.0653V15.4134H37.3949V13.2969ZM49.8718 19V8.09091H52.4428V19H49.8718ZM51.1644 6.54261C50.7572 6.54261 50.4068 6.40767 50.1133 6.13778C49.8197 5.86316 49.6729 5.53409 49.6729 5.15057C49.6729 4.76231 49.8197 4.43324 50.1133 4.16335C50.4068 3.88873 50.7572 3.75142 51.1644 3.75142C51.5763 3.75142 51.9267 3.88873 52.2156 4.16335C52.5091 4.43324 52.6559 4.76231 52.6559 5.15057C52.6559 5.53409 52.5091 5.86316 52.2156 6.13778C51.9267 6.40767 51.5763 6.54261 51.1644 6.54261ZM55.0866 19V8.09091H57.5795V9.90909H57.6932C57.892 9.27936 58.233 8.79403 58.7159 8.45312C59.2036 8.10748 59.7599 7.93466 60.3849 7.93466C60.527 7.93466 60.6856 7.94176 60.8608 7.95597C61.0407 7.96544 61.1899 7.98201 61.3082 8.00568V10.3707C61.1993 10.3329 61.0265 10.2997 60.7898 10.2713C60.5578 10.2382 60.3329 10.2216 60.1151 10.2216C59.6463 10.2216 59.2249 10.3234 58.8509 10.527C58.4815 10.7259 58.1903 11.0028 57.9773 11.358C57.7642 11.7131 57.6577 12.1226 57.6577 12.5866V19H55.0866ZM69.0497 8.09091V10.0795H62.7784V8.09091H69.0497ZM64.3267 5.47727H66.8977V15.7188C66.8977 16.0644 66.9498 16.3295 67.054 16.5142C67.1629 16.6941 67.3049 16.8172 67.4801 16.8835C67.6553 16.9498 67.8494 16.983 68.0625 16.983C68.2235 16.983 68.3703 16.9711 68.5028 16.9474C68.6402 16.9238 68.7443 16.9025 68.8153 16.8835L69.2486 18.8935C69.1113 18.9408 68.9148 18.9929 68.6591 19.0497C68.4081 19.1065 68.1004 19.1397 67.7358 19.1491C67.0919 19.1681 66.5118 19.071 65.9957 18.858C65.4796 18.6402 65.0701 18.304 64.767 17.8494C64.4688 17.3949 64.322 16.8267 64.3267 16.1449V5.47727ZM74.3391 19.2202C73.6478 19.2202 73.0252 19.0971 72.4712 18.8509C71.922 18.5999 71.4864 18.2306 71.1644 17.7429C70.8472 17.2552 70.6886 16.6539 70.6886 15.9389C70.6886 15.3234 70.8022 14.8144 71.0295 14.4119C71.2567 14.0095 71.5669 13.6875 71.9599 13.446C72.3529 13.2045 72.7956 13.0223 73.288 12.8991C73.7852 12.7713 74.2989 12.679 74.8292 12.6222C75.4684 12.5559 75.9869 12.4967 76.3846 12.4446C76.7823 12.3878 77.0711 12.3026 77.2511 12.1889C77.4357 12.0705 77.5281 11.8883 77.5281 11.642V11.5994C77.5281 11.0644 77.3694 10.6501 77.0522 10.3565C76.735 10.063 76.2781 9.91619 75.6815 9.91619C75.0517 9.91619 74.5522 10.0535 74.1829 10.3281C73.8183 10.6027 73.5721 10.9271 73.4442 11.3011L71.0437 10.9602C71.2331 10.2973 71.5456 9.74337 71.9812 9.2983C72.4168 8.84848 72.9495 8.51231 73.5792 8.28977C74.2089 8.0625 74.9049 7.94886 75.6673 7.94886C76.1928 7.94886 76.716 8.01042 77.2369 8.13352C77.7577 8.25663 78.2335 8.46023 78.6644 8.74432C79.0953 9.02367 79.4409 9.40483 79.7013 9.88778C79.9665 10.3707 80.0991 10.9744 80.0991 11.6989V19H77.6275V17.5014H77.5423C77.386 17.8045 77.1658 18.0885 76.8817 18.3537C76.6024 18.6141 76.2496 18.8248 75.8235 18.9858C75.4021 19.142 74.9073 19.2202 74.3391 19.2202ZM75.0067 17.331C75.5228 17.331 75.9703 17.2292 76.3491 17.0256C76.7279 16.8172 77.0191 16.5426 77.2227 16.2017C77.431 15.8608 77.5352 15.4891 77.5352 15.0866V13.8011C77.4547 13.8674 77.3174 13.929 77.1232 13.9858C76.9338 14.0426 76.7208 14.0923 76.484 14.1349C76.2473 14.1776 76.0129 14.2154 75.7809 14.2486C75.5489 14.2817 75.3477 14.3101 75.1772 14.3338C74.7937 14.3859 74.4504 14.4711 74.1474 14.5895C73.8443 14.7079 73.6052 14.8736 73.43 15.0866C73.2549 15.295 73.1673 15.5649 73.1673 15.8963C73.1673 16.3698 73.3401 16.7273 73.6857 16.9688C74.0314 17.2102 74.4717 17.331 75.0067 17.331ZM82.7979 19V4.45455H85.369V9.89489H85.4755C85.6081 9.62973 85.7951 9.34801 86.0366 9.04972C86.2781 8.74669 86.6048 8.48864 87.0167 8.27557C87.4286 8.05777 87.9542 7.94886 88.5934 7.94886C89.4362 7.94886 90.1961 8.1643 90.8732 8.59517C91.555 9.02131 92.0948 9.65341 92.4925 10.4915C92.895 11.3248 93.0962 12.3475 93.0962 13.5597C93.0962 14.7576 92.8997 15.7756 92.5067 16.6136C92.1138 17.4517 91.5787 18.0909 90.9016 18.5312C90.2246 18.9716 89.4575 19.1918 88.6005 19.1918C87.9755 19.1918 87.457 19.0876 87.0451 18.8793C86.6332 18.6709 86.3017 18.42 86.0508 18.1264C85.8046 17.8281 85.6128 17.5464 85.4755 17.2812H85.3263V19H82.7979ZM85.3192 13.5455C85.3192 14.2509 85.4187 14.8688 85.6175 15.3991C85.8211 15.9295 86.1123 16.3437 86.4911 16.642C86.8746 16.9356 87.3387 17.0824 87.8832 17.0824C88.4513 17.0824 88.9272 16.9309 89.3107 16.6278C89.6942 16.3201 89.9831 15.901 90.1772 15.3707C90.3761 14.8357 90.4755 14.2273 90.4755 13.5455C90.4755 12.8684 90.3784 12.267 90.1843 11.7415C89.9902 11.2159 89.7013 10.804 89.3178 10.5057C88.9343 10.2074 88.4561 10.0582 87.8832 10.0582C87.3339 10.0582 86.8675 10.2027 86.484 10.4915C86.1005 10.7803 85.8093 11.1851 85.6104 11.706C85.4163 12.2268 85.3192 12.84 85.3192 13.5455ZM97.853 4.45455V19H95.282V4.45455H97.853ZM105.326 19.2131C104.233 19.2131 103.288 18.9858 102.493 18.5312C101.702 18.072 101.093 17.4233 100.667 16.5852C100.241 15.7424 100.028 14.7505 100.028 13.6094C100.028 12.4872 100.241 11.5024 100.667 10.6548C101.098 9.80256 101.699 9.13968 102.471 8.66619C103.243 8.18797 104.15 7.94886 105.191 7.94886C105.864 7.94886 106.498 8.05777 107.095 8.27557C107.696 8.48864 108.226 8.82008 108.686 9.26989C109.15 9.7197 109.514 10.2926 109.779 10.9886C110.045 11.6799 110.177 12.5038 110.177 13.4602V14.2486H101.235V12.5156H107.713C107.708 12.0232 107.601 11.5852 107.393 11.2017C107.185 10.8134 106.894 10.508 106.52 10.2855C106.15 10.063 105.719 9.9517 105.227 9.9517C104.701 9.9517 104.24 10.0795 103.842 10.3352C103.444 10.5862 103.134 10.9176 102.912 11.3295C102.694 11.7367 102.583 12.1842 102.578 12.6719V14.1847C102.578 14.8191 102.694 15.3636 102.926 15.8182C103.158 16.268 103.482 16.6136 103.899 16.8551C104.315 17.0919 104.803 17.2102 105.362 17.2102C105.736 17.2102 106.074 17.1581 106.377 17.054C106.681 16.9451 106.943 16.7865 107.166 16.5781C107.388 16.3698 107.556 16.1117 107.67 15.804L110.071 16.0739C109.919 16.7083 109.63 17.2623 109.204 17.7358C108.783 18.2045 108.243 18.5691 107.585 18.8295C106.927 19.0852 106.174 19.2131 105.326 19.2131Z" fill="#9CA3AF"/>
</svg>
