<svg width="93" height="24" viewBox="0 0 93 24" fill="none" xmlns="http://www.w3.org/2000/svg">
<path d="M12 10C14.2091 10 16 8.20914 16 6C16 3.79086 14.2091 2 12 2C9.79086 2 8 3.79086 8 6C8 8.20914 9.79086 10 12 10Z" fill="#9CA3AF"/>
<path d="M12 22C14.2091 22 16 20.2091 16 18C16 15.7909 14.2091 14 12 14C9.79086 14 8 15.7909 8 18C8 20.2091 9.79086 22 12 22Z" fill="#9CA3AF"/>
<path d="M6 16C8.20914 16 10 14.2091 10 12C10 9.79086 8.20914 8 6 8C3.79086 8 2 9.79086 2 12C2 14.2091 3.79086 16 6 16Z" fill="#9CA3AF"/>
<path d="M18 16C20.2091 16 22 14.2091 22 12C22 9.79086 20.2091 8 18 8C15.7909 8 14 9.79086 14 12C14 14.2091 15.7909 16 18 16Z" fill="#9CA3AF"/>
<path d="M16 8H8V16H16V8Z" fill="#9CA3AF"/>
<path d="M35.4347 19V4.45455H44.7528V6.66335H38.0696V10.6122H44.1136V12.821H38.0696V19H35.4347ZM47.0398 19V8.09091H49.6108V19H47.0398ZM48.3324 6.54261C47.9252 6.54261 47.5748 6.40767 47.2812 6.13778C46.9877 5.86316 46.8409 5.53409 46.8409 5.15057C46.8409 4.76231 46.9877 4.43324 47.2812 4.16335C47.5748 3.88873 47.9252 3.75142 48.3324 3.75142C48.7443 3.75142 49.0947 3.88873 49.3835 4.16335C49.6771 4.43324 49.8239 4.76231 49.8239 5.15057C49.8239 5.53409 49.6771 5.86316 49.3835 6.13778C49.0947 6.40767 48.7443 6.54261 48.3324 6.54261ZM56.9989 23.3182C56.0756 23.3182 55.2826 23.1927 54.6197 22.9418C53.9568 22.6955 53.4241 22.3641 53.0217 21.9474C52.6192 21.5308 52.3398 21.0691 52.1836 20.5625L54.4989 20.0014C54.6031 20.2145 54.7546 20.4252 54.9535 20.6335C55.1523 20.8466 55.4199 21.0218 55.756 21.1591C56.0969 21.3011 56.5254 21.3722 57.0415 21.3722C57.7707 21.3722 58.3744 21.1946 58.8526 20.8395C59.3308 20.4891 59.57 19.9115 59.57 19.1065V17.0398H59.4421C59.3095 17.3049 59.1154 17.5772 58.8597 17.8565C58.6088 18.1359 58.275 18.3703 57.8583 18.5597C57.4464 18.7491 56.9279 18.8438 56.3029 18.8438C55.4648 18.8438 54.7049 18.6473 54.0231 18.2543C53.346 17.8565 52.8062 17.2647 52.4038 16.4787C52.006 15.688 51.8072 14.6984 51.8072 13.5099C51.8072 12.312 52.006 11.3011 52.4038 10.4773C52.8062 9.64867 53.3484 9.02131 54.0302 8.59517C54.712 8.1643 55.4719 7.94886 56.31 7.94886C56.9492 7.94886 57.4748 8.05777 57.8867 8.27557C58.3034 8.48864 58.6348 8.74669 58.881 9.04972C59.1272 9.34801 59.3143 9.62973 59.4421 9.89489H59.5842V8.09091H62.1197V19.1776C62.1197 20.1103 61.8971 20.8821 61.4521 21.4929C61.007 22.1037 60.3986 22.5606 59.6268 22.8636C58.855 23.1667 57.979 23.3182 56.9989 23.3182ZM57.0202 16.8267C57.5647 16.8267 58.0288 16.6941 58.4123 16.429C58.7958 16.1638 59.087 15.7827 59.2859 15.2855C59.4847 14.7884 59.5842 14.1918 59.5842 13.4957C59.5842 12.8092 59.4847 12.2079 59.2859 11.6918C59.0917 11.1757 58.8029 10.7756 58.4194 10.4915C58.0406 10.2027 57.5742 10.0582 57.0202 10.0582C56.4473 10.0582 55.9691 10.2074 55.5856 10.5057C55.2021 10.804 54.9132 11.2135 54.7191 11.7344C54.525 12.2505 54.4279 12.8376 54.4279 13.4957C54.4279 14.1634 54.525 14.7481 54.7191 15.25C54.918 15.7472 55.2092 16.1354 55.5927 16.4148C55.9809 16.6894 56.4568 16.8267 57.0202 16.8267ZM64.7546 19V8.09091H67.212V9.9446H67.3398C67.5671 9.3196 67.9435 8.83191 68.4691 8.48153C68.9947 8.12642 69.622 7.94886 70.3512 7.94886C71.0898 7.94886 71.7125 8.12879 72.2191 8.48864C72.7305 8.84375 73.0903 9.32907 73.2987 9.9446H73.4123C73.6538 9.33854 74.061 8.85559 74.6339 8.49574C75.2115 8.13116 75.8957 7.94886 76.6864 7.94886C77.6902 7.94886 78.5094 8.2661 79.1438 8.90057C79.7783 9.53504 80.0955 10.4607 80.0955 11.6776V19H77.5174V12.0753C77.5174 11.3982 77.3375 10.9034 76.9776 10.5909C76.6178 10.2737 76.1774 10.1151 75.6566 10.1151C75.0363 10.1151 74.551 10.3092 74.2006 10.6974C73.855 11.081 73.6822 11.5805 73.6822 12.196V19H71.1609V11.9688C71.1609 11.4053 70.9904 10.9555 70.6495 10.6193C70.3133 10.2831 69.873 10.1151 69.3285 10.1151C68.9592 10.1151 68.623 10.2098 68.32 10.3991C68.0169 10.5838 67.7754 10.8466 67.5955 11.1875C67.4156 11.5237 67.3256 11.9167 67.3256 12.3665V19H64.7546ZM85.843 19.2202C85.1518 19.2202 84.5291 19.0971 83.9751 18.8509C83.4259 18.5999 82.9903 18.2306 82.6683 17.7429C82.3511 17.2552 82.1925 16.6539 82.1925 15.9389C82.1925 15.3234 82.3061 14.8144 82.5334 14.4119C82.7607 14.0095 83.0708 13.6875 83.4638 13.446C83.8568 13.2045 84.2995 13.0223 84.7919 12.8991C85.2891 12.7713 85.8028 12.679 86.3331 12.6222C86.9723 12.5559 87.4908 12.4967 87.8885 12.4446C88.2862 12.3878 88.575 12.3026 88.755 12.1889C88.9396 12.0705 89.032 11.8883 89.032 11.642V11.5994C89.032 11.0644 88.8733 10.6501 88.5561 10.3565C88.2389 10.063 87.782 9.91619 87.1854 9.91619C86.5556 9.91619 86.0561 10.0535 85.6868 10.3281C85.3222 10.6027 85.076 10.9271 84.9482 11.3011L82.5476 10.9602C82.737 10.2973 83.0495 9.74337 83.4851 9.2983C83.9207 8.84848 84.4534 8.51231 85.0831 8.28977C85.7128 8.0625 86.4089 7.94886 87.1712 7.94886C87.6967 7.94886 88.2199 8.01042 88.7408 8.13352C89.2616 8.25663 89.7375 8.46023 90.1683 8.74432C90.5992 9.02367 90.9448 9.40483 91.2053 9.88778C91.4704 10.3707 91.603 10.9744 91.603 11.6989V19H89.1314V17.5014H89.0462C88.8899 17.8045 88.6697 18.0885 88.3857 18.3537C88.1063 18.6141 87.7536 18.8248 87.3274 18.9858C86.906 19.142 86.4112 19.2202 85.843 19.2202ZM86.5107 17.331C87.0268 17.331 87.4742 17.2292 87.853 17.0256C88.2318 16.8172 88.523 16.5426 88.7266 16.2017C88.9349 15.8608 89.0391 15.4891 89.0391 15.0866V13.8011C88.9586 13.8674 88.8213 13.929 88.6271 13.9858C88.4377 14.0426 88.2247 14.0923 87.9879 14.1349C87.7512 14.1776 87.5168 14.2154 87.2848 14.2486C87.0528 14.2817 86.8516 14.3101 86.6811 14.3338C86.2976 14.3859 85.9543 14.4711 85.6513 14.5895C85.3482 14.7079 85.1091 14.8736 84.9339 15.0866C84.7588 15.295 84.6712 15.5649 84.6712 15.8963C84.6712 16.3698 84.844 16.7273 85.1896 16.9688C85.5353 17.2102 85.9756 17.331 86.5107 17.331Z" fill="#9CA3AF"/>
</svg>
