<svg width="119" height="24" viewBox="0 0 119 24" fill="none" xmlns="http://www.w3.org/2000/svg">
<path d="M12 15C13.6569 15 15 13.6569 15 12C15 10.3431 13.6569 9 12 9C10.3431 9 9 10.3431 9 12C9 13.6569 10.3431 15 12 15Z" fill="#9CA3AF"/>
<path d="M12 6C13.1046 6 14 5.10457 14 4C14 2.89543 13.1046 2 12 2C10.8954 2 10 2.89543 10 4C10 5.10457 10.8954 6 12 6Z" fill="#9CA3AF"/>
<path d="M20 14C21.1046 14 22 13.1046 22 12C22 10.8954 21.1046 10 20 10C18.8954 10 18 10.8954 18 12C18 13.1046 18.8954 14 20 14Z" fill="#9CA3AF"/>
<path d="M12 22C13.1046 22 14 21.1046 14 20C14 18.8954 13.1046 18 12 18C10.8954 18 10 18.8954 10 20C10 21.1046 10.8954 22 12 22Z" fill="#9CA3AF"/>
<path d="M4 14C5.10457 14 6 13.1046 6 12C6 10.8954 5.10457 10 4 10C2.89543 10 2 10.8954 2 12C2 13.1046 2.89543 14 4 14Z" fill="#9CA3AF"/>
<path d="M12 6V9" stroke="#9CA3AF" stroke-width="2"/>
<path d="M18 12H15" stroke="#9CA3AF" stroke-width="2"/>
<path d="M12 18V15" stroke="#9CA3AF" stroke-width="2"/>
<path d="M6 12H9" stroke="#9CA3AF" stroke-width="2"/>
<path d="M35.4347 19V4.45455H38.0696V10.6122H44.8097V4.45455H47.4517V19H44.8097V12.821H38.0696V19H35.4347ZM57.157 14.4119V8.09091H59.728V19H57.2351V17.0611H57.1214C56.8752 17.6719 56.4704 18.1714 55.907 18.5597C55.3482 18.9479 54.6593 19.142 53.8402 19.142C53.1252 19.142 52.4931 18.9834 51.9439 18.6662C51.3994 18.3442 50.9732 17.8778 50.6655 17.267C50.3577 16.6515 50.2038 15.9081 50.2038 15.0369V8.09091H52.7749V14.6392C52.7749 15.3305 52.9643 15.8797 53.343 16.2869C53.7218 16.6941 54.219 16.8977 54.8345 16.8977C55.2133 16.8977 55.5803 16.8054 55.9354 16.6207C56.2905 16.4361 56.5817 16.1615 56.8089 15.7969C57.041 15.4276 57.157 14.9659 57.157 14.4119ZM62.4854 19V4.45455H65.0565V9.89489H65.163C65.2956 9.62973 65.4826 9.34801 65.7241 9.04972C65.9656 8.74669 66.2923 8.48864 66.7042 8.27557C67.1161 8.05777 67.6417 7.94886 68.2809 7.94886C69.1237 7.94886 69.8836 8.1643 70.5607 8.59517C71.2425 9.02131 71.7823 9.65341 72.18 10.4915C72.5825 11.3248 72.7837 12.3475 72.7837 13.5597C72.7837 14.7576 72.5872 15.7756 72.1942 16.6136C71.8013 17.4517 71.2662 18.0909 70.5891 18.5312C69.9121 18.9716 69.145 19.1918 68.288 19.1918C67.663 19.1918 67.1445 19.0876 66.7326 18.8793C66.3207 18.6709 65.9892 18.42 65.7383 18.1264C65.4921 17.8281 65.3003 17.5464 65.163 17.2812H65.0138V19H62.4854ZM65.0067 13.5455C65.0067 14.2509 65.1062 14.8688 65.305 15.3991C65.5086 15.9295 65.7998 16.3437 66.1786 16.642C66.5621 16.9356 67.0262 17.0824 67.5707 17.0824C68.1388 17.0824 68.6147 16.9309 68.9982 16.6278C69.3817 16.3201 69.6706 15.901 69.8647 15.3707C70.0636 14.8357 70.163 14.2273 70.163 13.5455C70.163 12.8684 70.0659 12.267 69.8718 11.7415C69.6777 11.2159 69.3888 10.804 69.0053 10.5057C68.6218 10.2074 68.1436 10.0582 67.5707 10.0582C67.0214 10.0582 66.555 10.2027 66.1715 10.4915C65.788 10.7803 65.4968 11.1851 65.2979 11.706C65.1038 12.2268 65.0067 12.84 65.0067 13.5455ZM82.9879 8.45312C82.9216 7.83286 82.6423 7.34991 82.1499 7.00426C81.6622 6.65862 81.0277 6.4858 80.2464 6.4858C79.6972 6.4858 79.2261 6.56866 78.8331 6.73438C78.4401 6.90009 78.1394 7.125 77.9311 7.40909C77.7228 7.69318 77.6162 8.01752 77.6115 8.3821C77.6115 8.68513 77.6802 8.94792 77.8175 9.17045C77.9595 9.39299 78.1513 9.58239 78.3928 9.73864C78.6342 9.89015 78.9018 10.018 79.1953 10.1222C79.4889 10.2263 79.7848 10.3139 80.0831 10.3849L81.4467 10.7259C81.996 10.8537 82.5239 11.0265 83.0305 11.2443C83.5419 11.4621 83.9988 11.7367 84.4013 12.0682C84.8085 12.3996 85.1304 12.7997 85.3672 13.2685C85.6039 13.7372 85.7223 14.2865 85.7223 14.9162C85.7223 15.7685 85.5045 16.5189 85.0689 17.1676C84.6333 17.8116 84.0036 18.3158 83.1797 18.6804C82.3606 19.0402 81.3686 19.2202 80.2038 19.2202C79.0722 19.2202 78.0897 19.045 77.2564 18.6946C76.4278 18.3442 75.7791 17.8329 75.3104 17.1605C74.8464 16.4882 74.5954 15.669 74.5575 14.7031H77.1499C77.1877 15.2098 77.344 15.6312 77.6186 15.9673C77.8932 16.3035 78.2507 16.5545 78.6911 16.7202C79.1361 16.8859 79.6333 16.9688 80.1825 16.9688C80.7554 16.9688 81.2573 16.8835 81.6882 16.7131C82.1238 16.5379 82.4647 16.2964 82.7109 15.9886C82.9571 15.6761 83.0826 15.3116 83.0874 14.8949C83.0826 14.5161 82.9714 14.2036 82.7536 13.9574C82.5357 13.7064 82.2304 13.4981 81.8374 13.3324C81.4491 13.1619 80.9946 13.0104 80.4737 12.8778L78.8189 12.4517C77.621 12.1439 76.674 11.6776 75.978 11.0526C75.2867 10.4228 74.9411 9.58712 74.9411 8.54545C74.9411 7.68845 75.1731 6.93797 75.6371 6.29403C76.1058 5.65009 76.7427 5.15057 77.5476 4.79545C78.3525 4.43561 79.264 4.25568 80.282 4.25568C81.3142 4.25568 82.2185 4.43561 82.995 4.79545C83.7763 5.15057 84.3894 5.64536 84.8345 6.27983C85.2796 6.90956 85.5092 7.634 85.5234 8.45312H82.9879ZM87.9577 23.0909V8.09091H90.4862V9.89489H90.6353C90.7679 9.62973 90.9549 9.34801 91.1964 9.04972C91.4379 8.74669 91.7646 8.48864 92.1765 8.27557C92.5884 8.05777 93.114 7.94886 93.7532 7.94886C94.596 7.94886 95.3559 8.1643 96.033 8.59517C96.7148 9.02131 97.2546 9.65341 97.6523 10.4915C98.0548 11.3248 98.256 12.3475 98.256 13.5597C98.256 14.7576 98.0595 15.7756 97.6665 16.6136C97.2736 17.4517 96.7385 18.0909 96.0614 18.5312C95.3844 18.9716 94.6173 19.1918 93.7603 19.1918C93.1353 19.1918 92.6168 19.0876 92.2049 18.8793C91.793 18.6709 91.4615 18.42 91.2106 18.1264C90.9644 17.8281 90.7726 17.5464 90.6353 17.2812H90.5288V23.0909H87.9577ZM90.479 13.5455C90.479 14.2509 90.5785 14.8688 90.7773 15.3991C90.9809 15.9295 91.2721 16.3437 91.6509 16.642C92.0344 16.9356 92.4985 17.0824 93.043 17.0824C93.6112 17.0824 94.087 16.9309 94.4705 16.6278C94.854 16.3201 95.1429 15.901 95.337 15.3707C95.5359 14.8357 95.6353 14.2273 95.6353 13.5455C95.6353 12.8684 95.5382 12.267 95.3441 11.7415C95.15 11.2159 94.8612 10.804 94.4776 10.5057C94.0941 10.2074 93.6159 10.0582 93.043 10.0582C92.4937 10.0582 92.0273 10.2027 91.6438 10.4915C91.2603 10.7803 90.9691 11.1851 90.7702 11.706C90.5761 12.2268 90.479 12.84 90.479 13.5455ZM105.216 19.2131C104.151 19.2131 103.228 18.9787 102.446 18.5099C101.665 18.0412 101.059 17.3854 100.628 16.5426C100.202 15.6998 99.989 14.715 99.989 13.5881C99.989 12.4612 100.202 11.474 100.628 10.6264C101.059 9.77888 101.665 9.12074 102.446 8.65199C103.228 8.18324 104.151 7.94886 105.216 7.94886C106.282 7.94886 107.205 8.18324 107.986 8.65199C108.767 9.12074 109.371 9.77888 109.797 10.6264C110.228 11.474 110.444 12.4612 110.444 13.5881C110.444 14.715 110.228 15.6998 109.797 16.5426C109.371 17.3854 108.767 18.0412 107.986 18.5099C107.205 18.9787 106.282 19.2131 105.216 19.2131ZM105.23 17.1534C105.808 17.1534 106.291 16.9948 106.679 16.6776C107.068 16.3556 107.356 15.9247 107.546 15.3849C107.74 14.8452 107.837 14.2438 107.837 13.581C107.837 12.9134 107.74 12.3097 107.546 11.7699C107.356 11.2254 107.068 10.7921 106.679 10.4702C106.291 10.1482 105.808 9.98722 105.23 9.98722C104.639 9.98722 104.146 10.1482 103.753 10.4702C103.365 10.7921 103.074 11.2254 102.88 11.7699C102.69 12.3097 102.596 12.9134 102.596 13.581C102.596 14.2438 102.69 14.8452 102.88 15.3849C103.074 15.9247 103.365 16.3556 103.753 16.6776C104.146 16.9948 104.639 17.1534 105.23 17.1534ZM118.073 8.09091V10.0795H111.802V8.09091H118.073ZM113.35 5.47727H115.921V15.7188C115.921 16.0644 115.973 16.3295 116.077 16.5142C116.186 16.6941 116.328 16.8172 116.504 16.8835C116.679 16.9498 116.873 16.983 117.086 16.983C117.247 16.983 117.394 16.9711 117.526 16.9474C117.664 16.9238 117.768 16.9025 117.839 16.8835L118.272 18.8935C118.135 18.9408 117.938 18.9929 117.683 19.0497C117.432 19.1065 117.124 19.1397 116.759 19.1491C116.115 19.1681 115.535 19.071 115.019 18.858C114.503 18.6402 114.094 18.304 113.79 17.8494C113.492 17.3949 113.345 16.8267 113.35 16.1449V5.47727Z" fill="#9CA3AF"/>
</svg>
