<svg width="91" height="24" viewBox="0 0 91 24" fill="none" xmlns="http://www.w3.org/2000/svg">
<path d="M12 22C17.5228 22 22 17.5228 22 12C22 6.47715 17.5228 2 12 2C6.47715 2 2 6.47715 2 12C2 17.5228 6.47715 22 12 22Z" fill="#9CA3AF"/>
<path d="M9 11C10.1046 11 11 10.1046 11 9C11 7.89543 10.1046 7 9 7C7.89543 7 7 7.89543 7 9C7 10.1046 7.89543 11 9 11Z" fill="white"/>
<path d="M15 11C16.1046 11 17 10.1046 17 9C17 7.89543 16.1046 7 15 7C13.8954 7 13 7.89543 13 9C13 10.1046 13.8954 11 15 11Z" fill="white"/>
<path d="M9 17C10.1046 17 11 16.1046 11 15C11 13.8954 10.1046 13 9 13C7.89543 13 7 13.8954 7 15C7 16.1046 7.89543 17 9 17Z" fill="white"/>
<path d="M15 17C16.1046 17 17 16.1046 17 15C17 13.8954 16.1046 13 15 13C13.8954 13 13 13.8954 13 15C13 16.1046 13.8954 17 15 17Z" fill="white"/>
<path d="M34.7955 6.66335V4.45455H46.4006V6.66335H41.9048V19H39.2912V6.66335H34.7955ZM49.5256 19L46.4432 8.09091H49.0639L50.9815 15.7614H51.081L53.0412 8.09091H55.6335L57.5938 15.7188H57.7003L59.5895 8.09091H62.2173L59.1278 19H56.4503L54.4048 11.6278H54.2557L52.2102 19H49.5256ZM64.0124 19V8.09091H66.5835V19H64.0124ZM65.305 6.54261C64.8978 6.54261 64.5475 6.40767 64.2539 6.13778C63.9603 5.86316 63.8136 5.53409 63.8136 5.15057C63.8136 4.76231 63.9603 4.43324 64.2539 4.16335C64.5475 3.88873 64.8978 3.75142 65.305 3.75142C65.717 3.75142 66.0674 3.88873 66.3562 4.16335C66.6497 4.43324 66.7965 4.76231 66.7965 5.15057C66.7965 5.53409 66.6497 5.86316 66.3562 6.13778C66.0674 6.40767 65.717 6.54261 65.305 6.54261ZM71.7983 4.45455V19H69.2273V4.45455H71.7983ZM74.4421 19V8.09091H77.0131V19H74.4421ZM75.7347 6.54261C75.3275 6.54261 74.9772 6.40767 74.6836 6.13778C74.39 5.86316 74.2433 5.53409 74.2433 5.15057C74.2433 4.76231 74.39 4.43324 74.6836 4.16335C74.9772 3.88873 75.3275 3.75142 75.7347 3.75142C76.1467 3.75142 76.497 3.88873 76.7859 4.16335C77.0794 4.43324 77.2262 4.76231 77.2262 5.15057C77.2262 5.53409 77.0794 5.86316 76.7859 6.13778C76.497 6.40767 76.1467 6.54261 75.7347 6.54261ZM84.4155 19.2131C83.3501 19.2131 82.4268 18.9787 81.6456 18.5099C80.8643 18.0412 80.2583 17.3854 79.8274 16.5426C79.4013 15.6998 79.1882 14.715 79.1882 13.5881C79.1882 12.4612 79.4013 11.474 79.8274 10.6264C80.2583 9.77888 80.8643 9.12074 81.6456 8.65199C82.4268 8.18324 83.3501 7.94886 84.4155 7.94886C85.4808 7.94886 86.4041 8.18324 87.1854 8.65199C87.9666 9.12074 88.5703 9.77888 88.9964 10.6264C89.4273 11.474 89.6428 12.4612 89.6428 13.5881C89.6428 14.715 89.4273 15.6998 88.9964 16.5426C88.5703 17.3854 87.9666 18.0412 87.1854 18.5099C86.4041 18.9787 85.4808 19.2131 84.4155 19.2131ZM84.4297 17.1534C85.0073 17.1534 85.4903 16.9948 85.8786 16.6776C86.2668 16.3556 86.5556 15.9247 86.745 15.3849C86.9392 14.8452 87.0362 14.2438 87.0362 13.581C87.0362 12.9134 86.9392 12.3097 86.745 11.7699C86.5556 11.2254 86.2668 10.7921 85.8786 10.4702C85.4903 10.1482 85.0073 9.98722 84.4297 9.98722C83.8378 9.98722 83.3454 10.1482 82.9524 10.4702C82.5642 10.7921 82.273 11.2254 82.0788 11.7699C81.8894 12.3097 81.7947 12.9134 81.7947 13.581C81.7947 14.2438 81.8894 14.8452 82.0788 15.3849C82.273 15.9247 82.5642 16.3556 82.9524 16.6776C83.3454 16.9948 83.8378 17.1534 84.4297 17.1534Z" fill="#9CA3AF"/>
</svg>
