<svg width="92" height="24" viewBox="0 0 92 24" fill="none" xmlns="http://www.w3.org/2000/svg">
<path d="M12 2C6.48 2 2 6.48 2 12C2 17.52 6.48 22 12 22C17.52 22 22 17.52 22 12C22 6.48 17.52 2 12 2Z" fill="#9CA3AF"/>
<path d="M9 12C9 10.34 10.34 9 12 9C13.66 9 15 10.34 15 12" stroke="white" stroke-width="2" stroke-linecap="round"/>
<path d="M45.179 9.09943C45.0606 8.71591 44.8973 8.37263 44.6889 8.0696C44.4853 7.76184 44.2391 7.49905 43.9503 7.28125C43.6662 7.06345 43.3395 6.90009 42.9702 6.79119C42.6009 6.67756 42.1984 6.62074 41.7628 6.62074C40.9815 6.62074 40.2855 6.81723 39.6747 7.21023C39.0639 7.60322 38.5833 8.18087 38.233 8.94318C37.8873 9.70076 37.7145 10.6241 37.7145 11.7131C37.7145 12.8116 37.8873 13.742 38.233 14.5043C38.5786 15.2666 39.0592 15.8466 39.6747 16.2443C40.2902 16.6373 41.0052 16.8338 41.8196 16.8338C42.5582 16.8338 43.1974 16.6918 43.7372 16.4077C44.2817 16.1236 44.7008 15.7211 44.9943 15.2003C45.2879 14.6747 45.4347 14.0592 45.4347 13.3537L46.0312 13.446H42.0824V11.3864H47.9844V13.1335C47.9844 14.3788 47.7192 15.456 47.1889 16.3651C46.6586 17.2741 45.9295 17.9749 45.0014 18.4673C44.0734 18.955 43.008 19.1989 41.8054 19.1989C40.4654 19.1989 39.2888 18.8982 38.2756 18.2969C37.267 17.6908 36.4787 16.8314 35.9105 15.7188C35.3471 14.6013 35.0653 13.2756 35.0653 11.7415C35.0653 10.5672 35.2311 9.51847 35.5625 8.59517C35.8987 7.67188 36.3674 6.88826 36.9688 6.24432C37.5701 5.59564 38.2756 5.10322 39.0852 4.76705C39.8949 4.42614 40.7756 4.25568 41.7273 4.25568C42.5322 4.25568 43.2827 4.37405 43.9787 4.6108C44.6747 4.8428 45.2926 5.17424 45.8324 5.60511C46.3769 6.03598 46.8243 6.54735 47.1747 7.1392C47.5251 7.73106 47.7547 8.38447 47.8636 9.09943H45.179ZM57.3718 14.4119V8.09091H59.9428V19H57.4499V17.0611H57.3363C57.0901 17.6719 56.6853 18.1714 56.1218 18.5597C55.5631 18.9479 54.8742 19.142 54.055 19.142C53.3401 19.142 52.708 18.9834 52.1587 18.6662C51.6142 18.3442 51.1881 17.8778 50.8803 17.267C50.5726 16.6515 50.4187 15.9081 50.4187 15.0369V8.09091H52.9897V14.6392C52.9897 15.3305 53.1791 15.8797 53.5579 16.2869C53.9367 16.6941 54.4338 16.8977 55.0494 16.8977C55.4281 16.8977 55.7951 16.8054 56.1502 16.6207C56.5053 16.4361 56.7965 16.1615 57.0238 15.7969C57.2558 15.4276 57.3718 14.9659 57.3718 14.4119ZM71.2088 10.9744L68.8651 11.2301C68.7988 10.9934 68.6828 10.7708 68.517 10.5625C68.3561 10.3542 68.1383 10.1861 67.8636 10.0582C67.589 9.9304 67.2528 9.86648 66.8551 9.86648C66.3201 9.86648 65.8703 9.98248 65.5057 10.2145C65.1458 10.4465 64.9683 10.7472 64.973 11.1165C64.9683 11.4337 65.0843 11.6918 65.321 11.8906C65.5625 12.0895 65.9602 12.2528 66.5142 12.3807L68.375 12.7784C69.4072 13.0009 70.1742 13.3537 70.6761 13.8366C71.1828 14.3196 71.4384 14.9517 71.4432 15.733C71.4384 16.4195 71.2372 17.0256 70.8395 17.5511C70.4465 18.072 69.8996 18.4792 69.1989 18.7727C68.4981 19.0663 67.6932 19.2131 66.7841 19.2131C65.4489 19.2131 64.3741 18.9337 63.5597 18.375C62.7453 17.8116 62.2599 17.0279 62.1037 16.0241L64.6108 15.7827C64.7244 16.2751 64.9659 16.6468 65.3352 16.8977C65.7045 17.1487 66.1851 17.2741 66.777 17.2741C67.3878 17.2741 67.8778 17.1487 68.2472 16.8977C68.6212 16.6468 68.8082 16.3366 68.8082 15.9673C68.8082 15.6548 68.6875 15.3968 68.446 15.1932C68.2093 14.9896 67.84 14.8333 67.3381 14.7244L65.4773 14.3338C64.4309 14.116 63.6567 13.7491 63.1548 13.233C62.6529 12.7121 62.4044 12.054 62.4091 11.2585C62.4044 10.5862 62.5866 10.0038 62.956 9.51136C63.33 9.0142 63.8485 8.63068 64.5114 8.3608C65.179 8.08617 65.9484 7.94886 66.8196 7.94886C68.098 7.94886 69.1042 8.22112 69.8381 8.76562C70.5767 9.31013 71.0336 10.0464 71.2088 10.9744ZM79.0107 8.09091V10.0795H72.7393V8.09091H79.0107ZM74.2876 5.47727H76.8587V15.7188C76.8587 16.0644 76.9107 16.3295 77.0149 16.5142C77.1238 16.6941 77.2659 16.8172 77.4411 16.8835C77.6162 16.9498 77.8104 16.983 78.0234 16.983C78.1844 16.983 78.3312 16.9711 78.4638 16.9474C78.6011 16.9238 78.7053 16.9025 78.7763 16.8835L79.2095 18.8935C79.0722 18.9408 78.8757 18.9929 78.62 19.0497C78.3691 19.1065 78.0613 19.1397 77.6967 19.1491C77.0528 19.1681 76.4728 19.071 75.9567 18.858C75.4406 18.6402 75.031 18.304 74.728 17.8494C74.4297 17.3949 74.2829 16.8267 74.2876 16.1449V5.47727ZM85.8022 19.2131C84.7369 19.2131 83.8136 18.9787 83.0323 18.5099C82.2511 18.0412 81.645 17.3854 81.2141 16.5426C80.788 15.6998 80.5749 14.715 80.5749 13.5881C80.5749 12.4612 80.788 11.474 81.2141 10.6264C81.645 9.77888 82.2511 9.12074 83.0323 8.65199C83.8136 8.18324 84.7369 7.94886 85.8022 7.94886C86.8675 7.94886 87.7908 8.18324 88.5721 8.65199C89.3533 9.12074 89.957 9.77888 90.3832 10.6264C90.814 11.474 91.0295 12.4612 91.0295 13.5881C91.0295 14.715 90.814 15.6998 90.3832 16.5426C89.957 17.3854 89.3533 18.0412 88.5721 18.5099C87.7908 18.9787 86.8675 19.2131 85.8022 19.2131ZM85.8164 17.1534C86.3941 17.1534 86.877 16.9948 87.2653 16.6776C87.6535 16.3556 87.9424 15.9247 88.1317 15.3849C88.3259 14.8452 88.4229 14.2438 88.4229 13.581C88.4229 12.9134 88.3259 12.3097 88.1317 11.7699C87.9424 11.2254 87.6535 10.7921 87.2653 10.4702C86.877 10.1482 86.3941 9.98722 85.8164 9.98722C85.2246 9.98722 84.7321 10.1482 84.3391 10.4702C83.9509 10.7921 83.6597 11.2254 83.4656 11.7699C83.2762 12.3097 83.1815 12.9134 83.1815 13.581C83.1815 14.2438 83.2762 14.8452 83.4656 15.3849C83.6597 15.9247 83.9509 16.3556 84.3391 16.6776C84.7321 16.9948 85.2246 17.1534 85.8164 17.1534Z" fill="#9CA3AF"/>
</svg>
