<svg width="87" height="24" viewBox="0 0 87 24" fill="none" xmlns="http://www.w3.org/2000/svg">
<path d="M14 4C14 2.89543 13.1046 2 12 2C10.8954 2 10 2.89543 10 4V8C10 9.10457 10.8954 10 12 10C13.1046 10 14 9.10457 14 8V4Z" fill="#9CA3AF"/>
<path d="M8 10H4C2.89543 10 2 10.8954 2 12C2 13.1046 2.89543 14 4 14H8C9.10457 14 10 13.1046 10 12C10 10.8954 9.10457 10 8 10Z" fill="#9CA3AF"/>
<path d="M20 10H16C14.8954 10 14 10.8954 14 12C14 13.1046 14.8954 14 16 14H20C21.1046 14 22 13.1046 22 12C22 10.8954 21.1046 10 20 10Z" fill="#9CA3AF"/>
<path d="M14 16C14 14.8954 13.1046 14 12 14C10.8954 14 10 14.8954 10 16V20C10 21.1046 10.8954 22 12 22C13.1046 22 14 21.1046 14 20V16Z" fill="#9CA3AF"/>
<path d="M43.3395 8.45312C43.2732 7.83286 42.9938 7.34991 42.5014 7.00426C42.0137 6.65862 41.3793 6.4858 40.598 6.4858C40.0488 6.4858 39.5777 6.56866 39.1847 6.73438C38.7917 6.90009 38.491 7.125 38.2827 7.40909C38.0743 7.69318 37.9678 8.01752 37.9631 8.3821C37.9631 8.68513 38.0317 8.94792 38.169 9.17045C38.3111 9.39299 38.5028 9.58239 38.7443 9.73864C38.9858 9.89015 39.2533 10.018 39.5469 10.1222C39.8404 10.2263 40.1364 10.3139 40.4347 10.3849L41.7983 10.7259C42.3475 10.8537 42.8755 11.0265 43.3821 11.2443C43.8935 11.4621 44.3504 11.7367 44.7528 12.0682C45.16 12.3996 45.482 12.7997 45.7188 13.2685C45.9555 13.7372 46.0739 14.2865 46.0739 14.9162C46.0739 15.7685 45.8561 16.5189 45.4205 17.1676C44.9848 17.8116 44.3551 18.3158 43.5312 18.6804C42.7121 19.0402 41.7202 19.2202 40.5554 19.2202C39.4238 19.2202 38.4413 19.045 37.608 18.6946C36.7794 18.3442 36.1307 17.8329 35.6619 17.1605C35.1979 16.4882 34.947 15.669 34.9091 14.7031H37.5014C37.5393 15.2098 37.6955 15.6312 37.9702 15.9673C38.2448 16.3035 38.6023 16.5545 39.0426 16.7202C39.4877 16.8859 39.9848 16.9688 40.5341 16.9688C41.107 16.9688 41.6089 16.8835 42.0398 16.7131C42.4754 16.5379 42.8163 16.2964 43.0625 15.9886C43.3087 15.6761 43.4342 15.3116 43.4389 14.8949C43.4342 14.5161 43.3229 14.2036 43.1051 13.9574C42.8873 13.7064 42.5819 13.4981 42.1889 13.3324C41.8007 13.1619 41.3461 13.0104 40.8253 12.8778L39.1705 12.4517C37.9725 12.1439 37.0256 11.6776 36.3295 11.0526C35.6383 10.4228 35.2926 9.58712 35.2926 8.54545C35.2926 7.68845 35.5246 6.93797 35.9886 6.29403C36.4574 5.65009 37.0942 5.15057 37.8991 4.79545C38.7041 4.43561 39.6155 4.25568 40.6335 4.25568C41.6657 4.25568 42.5701 4.43561 43.3466 4.79545C44.1278 5.15057 44.741 5.64536 45.1861 6.27983C45.6312 6.90956 45.8608 7.634 45.875 8.45312H43.3395ZM50.8803 4.45455V19H48.3093V4.45455H50.8803ZM56.6634 19.2202C55.9721 19.2202 55.3494 19.0971 54.7955 18.8509C54.2462 18.5999 53.8106 18.2306 53.4886 17.7429C53.1714 17.2552 53.0128 16.6539 53.0128 15.9389C53.0128 15.3234 53.1264 14.8144 53.3537 14.4119C53.581 14.0095 53.8911 13.6875 54.2841 13.446C54.6771 13.2045 55.1198 13.0223 55.6122 12.8991C56.1094 12.7713 56.6231 12.679 57.1534 12.6222C57.7926 12.5559 58.3111 12.4967 58.7088 12.4446C59.1065 12.3878 59.3954 12.3026 59.5753 12.1889C59.7599 12.0705 59.8523 11.8883 59.8523 11.642V11.5994C59.8523 11.0644 59.6937 10.6501 59.3764 10.3565C59.0592 10.063 58.6023 9.91619 58.0057 9.91619C57.3759 9.91619 56.8764 10.0535 56.5071 10.3281C56.1425 10.6027 55.8963 10.9271 55.7685 11.3011L53.3679 10.9602C53.5573 10.2973 53.8698 9.74337 54.3054 9.2983C54.741 8.84848 55.2737 8.51231 55.9034 8.28977C56.5331 8.0625 57.2292 7.94886 57.9915 7.94886C58.517 7.94886 59.0402 8.01042 59.5611 8.13352C60.0819 8.25663 60.5578 8.46023 60.9886 8.74432C61.4195 9.02367 61.7652 9.40483 62.0256 9.88778C62.2907 10.3707 62.4233 10.9744 62.4233 11.6989V19H59.9517V17.5014H59.8665C59.7102 17.8045 59.4901 18.0885 59.206 18.3537C58.9266 18.6141 58.5739 18.8248 58.1477 18.9858C57.7263 19.142 57.2315 19.2202 56.6634 19.2202ZM57.331 17.331C57.8471 17.331 58.2945 17.2292 58.6733 17.0256C59.0521 16.8172 59.3433 16.5426 59.5469 16.2017C59.7552 15.8608 59.8594 15.4891 59.8594 15.0866V13.8011C59.7789 13.8674 59.6416 13.929 59.4474 13.9858C59.258 14.0426 59.045 14.0923 58.8082 14.1349C58.5715 14.1776 58.3371 14.2154 58.1051 14.2486C57.8731 14.2817 57.6719 14.3101 57.5014 14.3338C57.1179 14.3859 56.7746 14.4711 56.4716 14.5895C56.1686 14.7079 55.9295 14.8736 55.7543 15.0866C55.5791 15.295 55.4915 15.5649 55.4915 15.8963C55.4915 16.3698 55.6643 16.7273 56.0099 16.9688C56.3556 17.2102 56.7959 17.331 57.331 17.331ZM69.767 19.2131C68.678 19.2131 67.7429 18.974 66.9616 18.4957C66.1851 18.0175 65.5862 17.357 65.1648 16.5142C64.7481 15.6667 64.5398 14.6913 64.5398 13.5881C64.5398 12.4801 64.7528 11.5024 65.179 10.6548C65.6051 9.80256 66.2064 9.13968 66.983 8.66619C67.7642 8.18797 68.6875 7.94886 69.7528 7.94886C70.6383 7.94886 71.4219 8.11222 72.1037 8.43892C72.7902 8.76089 73.3371 9.2178 73.7443 9.80966C74.1515 10.3968 74.3835 11.0833 74.4403 11.8693H71.983C71.8835 11.3437 71.6468 10.9058 71.2727 10.5554C70.9034 10.2003 70.4086 10.0227 69.7884 10.0227C69.2628 10.0227 68.8011 10.1648 68.4034 10.4489C68.0057 10.7282 67.6955 11.1307 67.473 11.6562C67.2552 12.1818 67.1463 12.8116 67.1463 13.5455C67.1463 14.2888 67.2552 14.928 67.473 15.4631C67.6908 15.9934 67.9962 16.4029 68.3892 16.6918C68.7869 16.9759 69.2533 17.1179 69.7884 17.1179C70.1671 17.1179 70.5057 17.0469 70.804 16.9048C71.107 16.758 71.3603 16.5473 71.5639 16.2727C71.7675 15.9981 71.9072 15.6643 71.983 15.2713H74.4403C74.3788 16.0431 74.1515 16.7273 73.7585 17.3239C73.3655 17.9157 72.8305 18.3797 72.1534 18.7159C71.4763 19.0473 70.6809 19.2131 69.767 19.2131ZM78.8952 15.5767L78.8881 12.473H79.3001L83.2205 8.09091H86.2248L81.4023 13.4602H80.8697L78.8952 15.5767ZM76.5515 19V4.45455H79.1225V19H76.5515ZM83.3981 19L79.8469 14.0355L81.5799 12.2244L86.4734 19H83.3981Z" fill="#9CA3AF"/>
</svg>
