<svg width="119" height="24" viewBox="0 0 119 24" fill="none" xmlns="http://www.w3.org/2000/svg">
<path d="M3 17L7 7L11 17M9 13H5M13 7L17 17L21 7" stroke="#9CA3AF" stroke-width="2.5" stroke-linecap="round" stroke-linejoin="round"/>
<path d="M38.4957 19L34.3906 4.45455H37.2244L39.8452 15.1435H39.9801L42.7784 4.45455H45.3565L48.1619 15.1506H48.2898L50.9105 4.45455H53.7443L49.6392 19H47.0398L44.1278 8.79403H44.0142L41.0952 19H38.4957ZM59.174 19.2131C58.0803 19.2131 57.1357 18.9858 56.3402 18.5312C55.5495 18.072 54.9411 17.4233 54.5149 16.5852C54.0888 15.7424 53.8757 14.7505 53.8757 13.6094C53.8757 12.4872 54.0888 11.5024 54.5149 10.6548C54.9458 9.80256 55.5471 9.13968 56.3189 8.66619C57.0907 8.18797 57.9974 7.94886 59.0391 7.94886C59.7114 7.94886 60.3459 8.05777 60.9425 8.27557C61.5438 8.48864 62.0741 8.82008 62.5334 9.26989C62.9974 9.7197 63.362 10.2926 63.6271 10.9886C63.8923 11.6799 64.0249 12.5038 64.0249 13.4602V14.2486H55.0831V12.5156H61.5604C61.5556 12.0232 61.4491 11.5852 61.2408 11.2017C61.0324 10.8134 60.7412 10.508 60.3672 10.2855C59.9979 10.063 59.567 9.9517 59.0746 9.9517C58.549 9.9517 58.0874 10.0795 57.6896 10.3352C57.2919 10.5862 56.9818 10.9176 56.7592 11.3295C56.5414 11.7367 56.4302 12.1842 56.4254 12.6719V14.1847C56.4254 14.8191 56.5414 15.3636 56.7734 15.8182C57.0054 16.268 57.3298 16.6136 57.7464 16.8551C58.1631 17.0919 58.6508 17.2102 59.2095 17.2102C59.5836 17.2102 59.9221 17.1581 60.2251 17.054C60.5282 16.9451 60.791 16.7865 61.0135 16.5781C61.236 16.3698 61.4041 16.1117 61.5178 15.804L63.9183 16.0739C63.7668 16.7083 63.478 17.2623 63.0518 17.7358C62.6304 18.2045 62.0907 18.5691 61.4325 18.8295C60.7744 19.0852 60.0215 19.2131 59.174 19.2131ZM66.3136 19V4.45455H68.8846V9.89489H68.9911C69.1237 9.62973 69.3107 9.34801 69.5522 9.04972C69.7937 8.74669 70.1204 8.48864 70.5323 8.27557C70.9442 8.05777 71.4698 7.94886 72.109 7.94886C72.9518 7.94886 73.7118 8.1643 74.3888 8.59517C75.0707 9.02131 75.6104 9.65341 76.0082 10.4915C76.4106 11.3248 76.6119 12.3475 76.6119 13.5597C76.6119 14.7576 76.4154 15.7756 76.0224 16.6136C75.6294 17.4517 75.0943 18.0909 74.4173 18.5312C73.7402 18.9716 72.9731 19.1918 72.1161 19.1918C71.4911 19.1918 70.9727 19.0876 70.5607 18.8793C70.1488 18.6709 69.8174 18.42 69.5664 18.1264C69.3202 17.8281 69.1284 17.5464 68.9911 17.2812H68.842V19H66.3136ZM68.8349 13.5455C68.8349 14.2509 68.9343 14.8688 69.1332 15.3991C69.3368 15.9295 69.628 16.3437 70.0067 16.642C70.3903 16.9356 70.8543 17.0824 71.3988 17.0824C71.967 17.0824 72.4428 16.9309 72.8263 16.6278C73.2099 16.3201 73.4987 15.901 73.6928 15.3707C73.8917 14.8357 73.9911 14.2273 73.9911 13.5455C73.9911 12.8684 73.8941 12.267 73.6999 11.7415C73.5058 11.2159 73.217 10.804 72.8335 10.5057C72.4499 10.2074 71.9717 10.0582 71.3988 10.0582C70.8496 10.0582 70.3832 10.2027 69.9996 10.4915C69.6161 10.7803 69.3249 11.1851 69.1261 11.706C68.9319 12.2268 68.8349 12.84 68.8349 13.5455ZM84.3232 8.09091V10.0795H77.8743V8.09091H84.3232ZM79.4865 19V7.06108C79.4865 6.32718 79.638 5.71638 79.9411 5.22869C80.2488 4.741 80.6607 4.37642 81.1768 4.13494C81.6929 3.89347 82.2659 3.77273 82.8956 3.77273C83.3407 3.77273 83.736 3.80824 84.0817 3.87926C84.4273 3.95028 84.683 4.0142 84.8487 4.07102L84.3374 6.05966C84.2285 6.02651 84.0911 5.99337 83.9254 5.96023C83.7597 5.92235 83.575 5.90341 83.3714 5.90341C82.8932 5.90341 82.5547 6.01941 82.3558 6.25142C82.1617 6.47869 82.0646 6.8054 82.0646 7.23153V19H79.4865ZM88.9077 4.45455V19H86.3366V4.45455H88.9077ZM96.31 19.2131C95.2447 19.2131 94.3214 18.9787 93.5401 18.5099C92.7589 18.0412 92.1528 17.3854 91.7219 16.5426C91.2958 15.6998 91.0827 14.715 91.0827 13.5881C91.0827 12.4612 91.2958 11.474 91.7219 10.6264C92.1528 9.77888 92.7589 9.12074 93.5401 8.65199C94.3214 8.18324 95.2447 7.94886 96.31 7.94886C97.3754 7.94886 98.2987 8.18324 99.0799 8.65199C99.8612 9.12074 100.465 9.77888 100.891 10.6264C101.322 11.474 101.537 12.4612 101.537 13.5881C101.537 14.715 101.322 15.6998 100.891 16.5426C100.465 17.3854 99.8612 18.0412 99.0799 18.5099C98.2987 18.9787 97.3754 19.2131 96.31 19.2131ZM96.3242 17.1534C96.9019 17.1534 97.3848 16.9948 97.7731 16.6776C98.1613 16.3556 98.4502 15.9247 98.6396 15.3849C98.8337 14.8452 98.9308 14.2438 98.9308 13.581C98.9308 12.9134 98.8337 12.3097 98.6396 11.7699C98.4502 11.2254 98.1613 10.7921 97.7731 10.4702C97.3848 10.1482 96.9019 9.98722 96.3242 9.98722C95.7324 9.98722 95.2399 10.1482 94.8469 10.4702C94.4587 10.7921 94.1675 11.2254 93.9734 11.7699C93.784 12.3097 93.6893 12.9134 93.6893 13.581C93.6893 14.2438 93.784 14.8452 93.9734 15.3849C94.1675 15.9247 94.4587 16.3556 94.8469 16.6776C95.2399 16.9948 95.7324 17.1534 96.3242 17.1534ZM105.658 19L102.576 8.09091H105.197L107.114 15.7614H107.214L109.174 8.09091H111.766L113.727 15.7188H113.833L115.722 8.09091H118.35L115.261 19H112.583L110.538 11.6278H110.388L108.343 19H105.658Z" fill="#9CA3AF"/>
</svg>
