<svg width="99" height="24" viewBox="0 0 99 24" fill="none" xmlns="http://www.w3.org/2000/svg">
<path d="M6 3H18C19.1 3 20 3.9 20 5V19C20 20.1 19.1 21 18 21H6C4.9 21 4 20.1 4 19V5C4 3.9 4.9 3 6 3Z" fill="#9CA3AF"/>
<path d="M8 8H16" stroke="white" stroke-width="1.5" stroke-linecap="round"/>
<path d="M8 12H16" stroke="white" stroke-width="1.5" stroke-linecap="round"/>
<path d="M8 16H13" stroke="white" stroke-width="1.5" stroke-linecap="round"/>
<path d="M47.3878 4.45455V19H45.044L38.1903 9.09233H38.0696V19H35.4347V4.45455H37.7926L44.6392 14.3693H44.767V4.45455H47.3878ZM54.9038 19.2131C53.8384 19.2131 52.9151 18.9787 52.1339 18.5099C51.3526 18.0412 50.7466 17.3854 50.3157 16.5426C49.8896 15.6998 49.6765 14.715 49.6765 13.5881C49.6765 12.4612 49.8896 11.474 50.3157 10.6264C50.7466 9.77888 51.3526 9.12074 52.1339 8.65199C52.9151 8.18324 53.8384 7.94886 54.9038 7.94886C55.9691 7.94886 56.8924 8.18324 57.6737 8.65199C58.4549 9.12074 59.0586 9.77888 59.4847 10.6264C59.9156 11.474 60.131 12.4612 60.131 13.5881C60.131 14.715 59.9156 15.6998 59.4847 16.5426C59.0586 17.3854 58.4549 18.0412 57.6737 18.5099C56.8924 18.9787 55.9691 19.2131 54.9038 19.2131ZM54.918 17.1534C55.4956 17.1534 55.9786 16.9948 56.3668 16.6776C56.7551 16.3556 57.0439 15.9247 57.2333 15.3849C57.4274 14.8452 57.5245 14.2438 57.5245 13.581C57.5245 12.9134 57.4274 12.3097 57.2333 11.7699C57.0439 11.2254 56.7551 10.7921 56.3668 10.4702C55.9786 10.1482 55.4956 9.98722 54.918 9.98722C54.3261 9.98722 53.8337 10.1482 53.4407 10.4702C53.0524 10.7921 52.7612 11.2254 52.5671 11.7699C52.3777 12.3097 52.283 12.9134 52.283 13.581C52.283 14.2438 52.3777 14.8452 52.5671 15.3849C52.7612 15.9247 53.0524 16.3556 53.4407 16.6776C53.8337 16.9948 54.3261 17.1534 54.918 17.1534ZM67.7607 8.09091V10.0795H61.4893V8.09091H67.7607ZM63.0376 5.47727H65.6087V15.7188C65.6087 16.0644 65.6607 16.3295 65.7649 16.5142C65.8738 16.6941 66.0159 16.8172 66.1911 16.8835C66.3662 16.9498 66.5604 16.983 66.7734 16.983C66.9344 16.983 67.0812 16.9711 67.2138 16.9474C67.3511 16.9238 67.4553 16.9025 67.5263 16.8835L67.9595 18.8935C67.8222 18.9408 67.6257 18.9929 67.37 19.0497C67.1191 19.1065 66.8113 19.1397 66.4467 19.1491C65.8028 19.1681 65.2228 19.071 64.7067 18.858C64.1906 18.6402 63.781 18.304 63.478 17.8494C63.1797 17.3949 63.0329 16.8267 63.0376 16.1449V5.47727ZM69.9109 19V8.09091H72.4819V19H69.9109ZM71.2035 6.54261C70.7963 6.54261 70.4459 6.40767 70.1523 6.13778C69.8588 5.86316 69.712 5.53409 69.712 5.15057C69.712 4.76231 69.8588 4.43324 70.1523 4.16335C70.4459 3.88873 70.7963 3.75142 71.2035 3.75142C71.6154 3.75142 71.9658 3.88873 72.2546 4.16335C72.5482 4.43324 72.695 4.76231 72.695 5.15057C72.695 5.53409 72.5482 5.86316 72.2546 6.13778C71.9658 6.40767 71.6154 6.54261 71.2035 6.54261ZM79.8842 19.2131C78.8189 19.2131 77.8956 18.9787 77.1143 18.5099C76.3331 18.0412 75.727 17.3854 75.2962 16.5426C74.87 15.6998 74.657 14.715 74.657 13.5881C74.657 12.4612 74.87 11.474 75.2962 10.6264C75.727 9.77888 76.3331 9.12074 77.1143 8.65199C77.8956 8.18324 78.8189 7.94886 79.8842 7.94886C80.9496 7.94886 81.8729 8.18324 82.6541 8.65199C83.4354 9.12074 84.0391 9.77888 84.4652 10.6264C84.8961 11.474 85.1115 12.4612 85.1115 13.5881C85.1115 14.715 84.8961 15.6998 84.4652 16.5426C84.0391 17.3854 83.4354 18.0412 82.6541 18.5099C81.8729 18.9787 80.9496 19.2131 79.8842 19.2131ZM79.8984 17.1534C80.4761 17.1534 80.959 16.9948 81.3473 16.6776C81.7356 16.3556 82.0244 15.9247 82.2138 15.3849C82.4079 14.8452 82.505 14.2438 82.505 13.581C82.505 12.9134 82.4079 12.3097 82.2138 11.7699C82.0244 11.2254 81.7356 10.7921 81.3473 10.4702C80.959 10.1482 80.4761 9.98722 79.8984 9.98722C79.3066 9.98722 78.8142 10.1482 78.4212 10.4702C78.0329 10.7921 77.7417 11.2254 77.5476 11.7699C77.3582 12.3097 77.2635 12.9134 77.2635 13.581C77.2635 14.2438 77.3582 14.8452 77.5476 15.3849C77.7417 15.9247 78.0329 16.3556 78.4212 16.6776C78.8142 16.9948 79.3066 17.1534 79.8984 17.1534ZM89.8647 12.608V19H87.2937V8.09091H89.7511V9.9446H89.8789C90.1299 9.33381 90.5299 8.84848 91.0792 8.48864C91.6332 8.12879 92.3174 7.94886 93.1317 7.94886C93.8846 7.94886 94.5404 8.10985 95.0991 8.43182C95.6625 8.75379 96.0981 9.22017 96.4059 9.83097C96.7184 10.4418 96.8723 11.1828 96.8675 12.054V19H94.2965V12.4517C94.2965 11.7225 94.1071 11.152 93.7283 10.7401C93.3543 10.3281 92.8358 10.1222 92.1729 10.1222C91.7231 10.1222 91.323 10.2216 90.9727 10.4205C90.627 10.6146 90.3548 10.8963 90.1559 11.2656C89.9618 11.6349 89.8647 12.0824 89.8647 12.608Z" fill="#9CA3AF"/>
</svg>
