<svg width="93" height="24" viewBox="0 0 93 24" fill="none" xmlns="http://www.w3.org/2000/svg">
<path d="M12 2V6C9.79 6 8 7.79 8 10C8 12.21 9.79 14 12 14C14.21 14 16 15.79 16 18C16 20.21 14.21 22 12 22V18" stroke="#9CA3AF" stroke-width="2.5" stroke-linecap="round"/>
<path d="M43.3395 8.45312C43.2732 7.83286 42.9938 7.34991 42.5014 7.00426C42.0137 6.65862 41.3793 6.4858 40.598 6.4858C40.0488 6.4858 39.5777 6.56866 39.1847 6.73438C38.7917 6.90009 38.491 7.125 38.2827 7.40909C38.0743 7.69318 37.9678 8.01752 37.9631 8.3821C37.9631 8.68513 38.0317 8.94792 38.169 9.17045C38.3111 9.39299 38.5028 9.58239 38.7443 9.73864C38.9858 9.89015 39.2533 10.018 39.5469 10.1222C39.8404 10.2263 40.1364 10.3139 40.4347 10.3849L41.7983 10.7259C42.3475 10.8537 42.8755 11.0265 43.3821 11.2443C43.8935 11.4621 44.3504 11.7367 44.7528 12.0682C45.16 12.3996 45.482 12.7997 45.7188 13.2685C45.9555 13.7372 46.0739 14.2865 46.0739 14.9162C46.0739 15.7685 45.8561 16.5189 45.4205 17.1676C44.9848 17.8116 44.3551 18.3158 43.5312 18.6804C42.7121 19.0402 41.7202 19.2202 40.5554 19.2202C39.4238 19.2202 38.4413 19.045 37.608 18.6946C36.7794 18.3442 36.1307 17.8329 35.6619 17.1605C35.1979 16.4882 34.947 15.669 34.9091 14.7031H37.5014C37.5393 15.2098 37.6955 15.6312 37.9702 15.9673C38.2448 16.3035 38.6023 16.5545 39.0426 16.7202C39.4877 16.8859 39.9848 16.9688 40.5341 16.9688C41.107 16.9688 41.6089 16.8835 42.0398 16.7131C42.4754 16.5379 42.8163 16.2964 43.0625 15.9886C43.3087 15.6761 43.4342 15.3116 43.4389 14.8949C43.4342 14.5161 43.3229 14.2036 43.1051 13.9574C42.8873 13.7064 42.5819 13.4981 42.1889 13.3324C41.8007 13.1619 41.3461 13.0104 40.8253 12.8778L39.1705 12.4517C37.9725 12.1439 37.0256 11.6776 36.3295 11.0526C35.6383 10.4228 35.2926 9.58712 35.2926 8.54545C35.2926 7.68845 35.5246 6.93797 35.9886 6.29403C36.4574 5.65009 37.0942 5.15057 37.8991 4.79545C38.7041 4.43561 39.6155 4.25568 40.6335 4.25568C41.6657 4.25568 42.5701 4.43561 43.3466 4.79545C44.1278 5.15057 44.741 5.64536 45.1861 6.27983C45.6312 6.90956 45.8608 7.634 45.875 8.45312H43.3395ZM53.7567 8.09091V10.0795H47.4854V8.09091H53.7567ZM49.0337 5.47727H51.6048V15.7188C51.6048 16.0644 51.6568 16.3295 51.761 16.5142C51.8699 16.6941 52.012 16.8172 52.1871 16.8835C52.3623 16.9498 52.5565 16.983 52.7695 16.983C52.9305 16.983 53.0773 16.9711 53.2099 16.9474C53.3472 16.9238 53.4513 16.9025 53.5224 16.8835L53.9556 18.8935C53.8183 18.9408 53.6218 18.9929 53.3661 19.0497C53.1152 19.1065 52.8074 19.1397 52.4428 19.1491C51.7989 19.1681 51.2189 19.071 50.7028 18.858C50.1867 18.6402 49.7771 18.304 49.4741 17.8494C49.1758 17.3949 49.029 16.8267 49.0337 16.1449V5.47727ZM55.907 19V8.09091H58.3999V9.90909H58.5135C58.7124 9.27936 59.0533 8.79403 59.5362 8.45312C60.0239 8.10748 60.5803 7.93466 61.2053 7.93466C61.3473 7.93466 61.5059 7.94176 61.6811 7.95597C61.861 7.96544 62.0102 7.98201 62.1286 8.00568V10.3707C62.0196 10.3329 61.8468 10.2997 61.6101 10.2713C61.3781 10.2382 61.1532 10.2216 60.9354 10.2216C60.4666 10.2216 60.0452 10.3234 59.6712 10.527C59.3018 10.7259 59.0107 11.0028 58.7976 11.358C58.5845 11.7131 58.478 12.1226 58.478 12.5866V19H55.907ZM63.8366 19V8.09091H66.4077V19H63.8366ZM65.1293 6.54261C64.7221 6.54261 64.3717 6.40767 64.0781 6.13778C63.7846 5.86316 63.6378 5.53409 63.6378 5.15057C63.6378 4.76231 63.7846 4.43324 64.0781 4.16335C64.3717 3.88873 64.7221 3.75142 65.1293 3.75142C65.5412 3.75142 65.8916 3.88873 66.1804 4.16335C66.474 4.43324 66.6207 4.76231 66.6207 5.15057C66.6207 5.53409 66.474 5.86316 66.1804 6.13778C65.8916 6.40767 65.5412 6.54261 65.1293 6.54261ZM69.0515 23.0909V8.09091H71.5799V9.89489H71.729C71.8616 9.62973 72.0487 9.34801 72.2901 9.04972C72.5316 8.74669 72.8583 8.48864 73.2702 8.27557C73.6822 8.05777 74.2077 7.94886 74.8469 7.94886C75.6897 7.94886 76.4497 8.1643 77.1268 8.59517C77.8086 9.02131 78.3484 9.65341 78.7461 10.4915C79.1486 11.3248 79.3498 12.3475 79.3498 13.5597C79.3498 14.7576 79.1533 15.7756 78.7603 16.6136C78.3673 17.4517 77.8323 18.0909 77.1552 18.5312C76.4781 18.9716 75.7111 19.1918 74.854 19.1918C74.229 19.1918 73.7106 19.0876 73.2987 18.8793C72.8867 18.6709 72.5553 18.42 72.3043 18.1264C72.0581 17.8281 71.8664 17.5464 71.729 17.2812H71.6225V23.0909H69.0515ZM71.5728 13.5455C71.5728 14.2509 71.6722 14.8688 71.8711 15.3991C72.0747 15.9295 72.3659 16.3437 72.7447 16.642C73.1282 16.9356 73.5922 17.0824 74.1367 17.0824C74.7049 17.0824 75.1808 16.9309 75.5643 16.6278C75.9478 16.3201 76.2366 15.901 76.4308 15.3707C76.6296 14.8357 76.729 14.2273 76.729 13.5455C76.729 12.8684 76.632 12.267 76.4379 11.7415C76.2437 11.2159 75.9549 10.804 75.5714 10.5057C75.1879 10.2074 74.7096 10.0582 74.1367 10.0582C73.5875 10.0582 73.1211 10.2027 72.7376 10.4915C72.354 10.7803 72.0629 11.1851 71.864 11.706C71.6699 12.2268 71.5728 12.84 71.5728 13.5455ZM86.381 19.2131C85.2873 19.2131 84.3427 18.9858 83.5472 18.5312C82.7565 18.072 82.1481 17.4233 81.7219 16.5852C81.2958 15.7424 81.0827 14.7505 81.0827 13.6094C81.0827 12.4872 81.2958 11.5024 81.7219 10.6548C82.1528 9.80256 82.7541 9.13968 83.5259 8.66619C84.2977 8.18797 85.2044 7.94886 86.2461 7.94886C86.9184 7.94886 87.5529 8.05777 88.1495 8.27557C88.7508 8.48864 89.2811 8.82008 89.7404 9.26989C90.2044 9.7197 90.569 10.2926 90.8342 10.9886C91.0993 11.6799 91.2319 12.5038 91.2319 13.4602V14.2486H82.2901V12.5156H88.7674C88.7627 12.0232 88.6561 11.5852 88.4478 11.2017C88.2395 10.8134 87.9483 10.508 87.5742 10.2855C87.2049 10.063 86.774 9.9517 86.2816 9.9517C85.756 9.9517 85.2944 10.0795 84.8967 10.3352C84.4989 10.5862 84.1888 10.9176 83.9663 11.3295C83.7485 11.7367 83.6372 12.1842 83.6325 12.6719V14.1847C83.6325 14.8191 83.7485 15.3636 83.9805 15.8182C84.2125 16.268 84.5368 16.6136 84.9535 16.8551C85.3701 17.0919 85.8578 17.2102 86.4165 17.2102C86.7906 17.2102 87.1291 17.1581 87.4322 17.054C87.7352 16.9451 87.998 16.7865 88.2205 16.5781C88.4431 16.3698 88.6112 16.1117 88.7248 15.804L91.1254 16.0739C90.9738 16.7083 90.685 17.2623 90.2589 17.7358C89.8375 18.2045 89.2977 18.5691 88.6396 18.8295C87.9814 19.0852 87.2286 19.2131 86.381 19.2131Z" fill="#9CA3AF"/>
</svg>
